<svg height="512" viewBox="0 0 64 64" width="512" xmlns="http://www.w3.org/2000/svg"><g id="flat"><path d="m26.278 31.136-1.36-1.483 3.375-3.36a1 1 0 0 1 .707-.293h4v2h-3.586z" fill="#143441"/><path d="m4.4 48.19a6.97 6.97 0 0 1 0-8.38l1.41-1.41a6.97 6.97 0 0 1 8.38 0l1.41 1.41a6.97 6.97 0 0 1 0 8.38l-1.42 1.41a6.852 6.852 0 0 1 -4.18 1.4 6.923 6.923 0 0 1 -4.19-1.4z" fill="#143441"/><g fill="#5a6470"><path d="m9.71 42.29-1.42 1.42-3.89-3.9a6.288 6.288 0 0 1 1.41-1.41z"/><path d="m15.6 48.19a6.547 6.547 0 0 1 -1.42 1.41l-3.89-3.89 1.42-1.42z"/><path d="m9.71 45.71-3.9 3.89a6.288 6.288 0 0 1 -1.41-1.41l3.89-3.9z"/><path d="m15.6 39.81-3.89 3.9-1.42-1.42 3.9-3.89a6.288 6.288 0 0 1 1.41 1.41z"/></g><circle cx="10" cy="44" fill="#f4f4e6" r="3"/><path d="m48.4 48.19a6.97 6.97 0 0 1 0-8.38l1.41-1.41a6.97 6.97 0 0 1 8.38 0l1.41 1.41a6.97 6.97 0 0 1 0 8.38l-1.42 1.41a6.852 6.852 0 0 1 -4.18 1.4 6.923 6.923 0 0 1 -4.19-1.4z" fill="#143441"/><path d="m53.71 42.29-1.42 1.42-3.89-3.9a6.288 6.288 0 0 1 1.41-1.41z" fill="#5a6470"/><path d="m59.6 48.19a6.547 6.547 0 0 1 -1.42 1.41l-3.89-3.89 1.42-1.42z" fill="#5a6470"/><path d="m53.71 45.71-3.9 3.89a6.288 6.288 0 0 1 -1.41-1.41l3.89-3.9z" fill="#5a6470"/><path d="m59.6 39.81-3.89 3.9-1.42-1.42 3.9-3.89a6.288 6.288 0 0 1 1.41 1.41z" fill="#5a6470"/><path d="m42 33v8l-3 3h-11.588l2.588 4h15l2-2v-13z" fill="#143441"/><path d="m47 41h-5l-3 3 2 4h4l2-2z" fill="#5a6470"/><path d="m19 31 4-4 9-10h19l4-4h-26l-20 20z" fill="#7fcac9"/><path d="m27 31-4-4-4 4 3.143 4.857z" fill="#5a6470"/><path d="m19 31 11 17h-9l-12-15z" fill="#394d5c"/><path d="m42 33 2-3v-3l2-2a2.122 2.122 0 0 0 0-3 2.122 2.122 0 0 0 -3 0l-6 6v7h-7a2 2 0 0 0 -2 2 2 2 0 0 0 2 2h4l1 5h4l3-3z" fill="#d3843d"/><circle cx="37" cy="36" fill="#f9bb4b" r="2"/><path d="m55 13 4 4v12l-4 4h-6v-5l6-6z" fill="#143441"/><path d="m55 22 4 4v3l-4 4h-6v-5z" fill="#394d5c"/><path d="m53 33h2v10.128h-2z" fill="#7fcac9"/><path d="m16 34h2v2h-2z" fill="#f9bb4b"/><circle cx="54" cy="44" fill="#f4f4e6" r="3"/></g></svg>