<svg height="512" viewBox="0 0 64 64" width="512" xmlns="http://www.w3.org/2000/svg"><g id="flat"><path d="m41 23a4 4 0 0 0 4-4v-3a13 13 0 0 0 -13-13 13 13 0 0 0 -13 13v3a4 4 0 0 0 4 4z" fill="#394d5c"/><path d="m23 22h18v5h-18z" fill="#ffd782"/><path d="m26 13h12a3 3 0 0 1 3 3v6a0 0 0 0 1 0 0h-18a0 0 0 0 1 0 0v-6a3 3 0 0 1 3-3z" fill="#5a6470"/><path d="m41 33h-18v-6l9-5 9 5z" fill="#195c85"/><path d="m50 29v8h-6v6h8a4 4 0 0 0 4-4v-10z" fill="#ffd782"/><path d="m20 37h24v24h-24z" fill="#195c85"/><path d="m56 29v-9a2 2 0 0 0 -2-2 2 2 0 0 0 -2 2v2h-2a2.006 2.006 0 0 0 -2 2v3a2.006 2.006 0 0 0 2 2z" fill="#f9bb4b"/><path d="m31 18h2v4h-2z" fill="#394d5c"/><path d="m28 37h8a0 0 0 0 1 0 0v2a4 4 0 0 1 -4 4 4 4 0 0 1 -4-4v-2a0 0 0 0 1 0 0z" fill="#ffd782"/><path d="m20 37h8v24h-8z" fill="#143441"/><path d="m36 37h8v24h-8z" fill="#143441"/><path d="m18 37h2a0 0 0 0 1 0 0v24a0 0 0 0 1 0 0h-6a0 0 0 0 1 0 0v-20a4 4 0 0 1 4-4z" fill="#ffd782"/><path d="m39 43h5v2h-5z" fill="#394d5c"/><path d="m20 43h5v2h-5z" fill="#394d5c"/><path d="m40 48h4v5h-4z" fill="#5a6470"/><path d="m20 52h4v5h-4z" fill="#5a6470"/><path d="m14 43h1a2 2 0 0 1 2 2 2 2 0 0 1 -2 2h-1a0 0 0 0 1 0 0v-4a0 0 0 0 1 0 0z" fill="#98b398"/><path d="m28 9h8v-5.366a12.935 12.935 0 0 0 -8 0z" fill="#5a6470"/><g fill="#394d5c"><path d="m26 16h2v2h-2z"/><path d="m36 16h2v2h-2z"/></g></g></svg>