<svg height="512" viewBox="0 0 64 64" width="512" xmlns="http://www.w3.org/2000/svg"><g id="flat"><path d="m17 29h3l-1 4 5-2v-10z" fill="#394d5c"/><path d="m47 29h-3l1 4-5-2v-10z" fill="#394d5c"/><path d="m32 3a13 13 0 0 0 -13 13v2a5 5 0 0 0 5 5h16a5 5 0 0 0 5-5v-2a13 13 0 0 0 -13-13z" fill="#143441"/><path d="m24 17h16v16h-16z" fill="#ffd782"/><path d="m29 28h6v2h-6z" fill="#394d5c"/><path d="m20 37h24v24h-24z" fill="#394d5c"/><path d="m24 17v4a4 4 0 0 0 4 4 4.109 4.109 0 0 0 4-4 4.109 4.109 0 0 0 4 4 4 4 0 0 0 4-4v-4z" fill="#195c85"/><path d="m28 13h8a4 4 0 0 1 4 4 0 0 0 0 1 0 0h-16a0 0 0 0 1 0 0 4 4 0 0 1 4-4z" fill="#7d8d9c"/><path d="m25 9h2v2h-2z" fill="#5a6470"/><path d="m37 9h2v2h-2z" fill="#5a6470"/><path d="m44 47h6v14h-6z" fill="#ffd782"/><path d="m14 47h6v14h-6z" fill="#ffd782"/><path d="m44 50-4 1-4-1v-4h8z" fill="#5a6470"/><path d="m23 45h6v2h-6z" fill="#f4f4e6"/><path d="m23 49h6v2h-6z" fill="#f4f4e6"/><path d="m47 50h3v2h-3z" fill="#7ec4bb"/><path d="m18 37a4 4 0 0 0 -4 4v6h6v-10z" fill="#7d8d9c"/><path d="m46 37a4 4 0 0 1 4 4v6h-6v-10z" fill="#7d8d9c"/><path d="m31 42h2v19h-2z" fill="#aabece"/><path d="m28 37h8a0 0 0 0 1 0 0v2a4 4 0 0 1 -4 4 4 4 0 0 1 -4-4v-2a0 0 0 0 1 0 0z" fill="#7d8d9c"/></g></svg>