<svg height="512" viewBox="0 0 64 64" width="512" xmlns="http://www.w3.org/2000/svg"><g id="flat"><path d="m49 37h-12l-4 11h10z" fill="#aabece"/><g fill="#143441"><path d="m21 14h10v4h-10z"/><circle cx="12" cy="46" r="9"/><path d="m43.06 45a8.994 8.994 0 0 1 7.94-7.94 8.363 8.363 0 0 1 2 0 9 9 0 1 1 -9.94 9.94z"/></g><circle cx="12" cy="46" fill="#f4f4e6" r="5"/><circle cx="52" cy="46" fill="#f4f4e6" r="5"/><path d="m39 12h10v8h-10z" fill="#ffd782"/><path d="m39 20h10v13h-10z" fill="#2d75bb"/><path d="m28 48h5a0 0 0 0 1 0 0v4a0 0 0 0 1 0 0h-8a0 0 0 0 1 0 0v-1a3 3 0 0 1 3-3z" fill="#394d5c"/><rect fill="#7d8d9c" height="4" rx="2" width="5" x="28" y="52"/><path d="m33 48h10a0 0 0 0 1 0 0 6 6 0 0 1 -6 6h-4a0 0 0 0 1 0 0v-6a0 0 0 0 1 0 0z" fill="#5a6470"/><path d="m39 48h-6l1-7h5z" fill="#7d8d9c"/><path d="m25 45v-7h7v10h-4a3 3 0 0 1 -3-3z" fill="#7d8d9c"/><path d="m33 33-2-3a6.512 6.512 0 0 0 -6-3h-4v7l4 4h8z" fill="#9c2d20"/><path d="m15 44 6-10v-2h-4l-6 11c-1 3 3 4 4 1z" fill="#aabece"/><path d="m17 27h4v5h-4z" fill="#7d8d9c"/><path d="m17 23h4v4h-4z" fill="#aabece"/><path d="m39 24h-8l-2-8a2 2 0 0 1 2-2 2 2 0 0 1 2 2l1 4h5z" fill="#ffd782"/><path d="m21 23a4 4 0 0 1 4 4 0 0 0 0 1 0 0h-4a0 0 0 0 1 0 0v-4a0 0 0 0 1 0 0z" fill="#394d5c"/><path d="m21 14a0 0 0 0 1 0 0v9a0 0 0 0 1 0 0h-4a0 0 0 0 1 0 0v-5a4 4 0 0 1 4-4z" fill="#7d8d9c"/><path d="m9 21h4a4 4 0 0 1 4 4 4 4 0 0 1 -4 4h-4a0 0 0 0 1 0 0v-8a0 0 0 0 1 0 0z" fill="#394d5c"/><path d="m9 21h4v8h-4z" fill="#f9bb4b"/><path d="m53 36v10a1 1 0 0 1 -1 1h-8.94a8.363 8.363 0 0 1 0-2h7.94v-9z" fill="#5a6470"/><path d="m35 20h4v4h-4z" fill="#195c85"/><path d="m44 20a5 5 0 0 1 -5 5v8h10v-13z" fill="#394d5c"/><path d="m42 15h2v2h-2z" fill="#394d5c"/><path d="m38 8 1 4h6l4 5v-5a4 4 0 0 0 -4-4z" fill="#394d5c"/><path d="m42 26h2v4h-2z" fill="#aabece"/><path d="m21 31h6v3h6v4h-8l-4-4z" fill="#d3843d"/><path d="m11 17a2 2 0 0 1 2 2v2a0 0 0 0 1 0 0h-4a0 0 0 0 1 0 0v-2a2 2 0 0 1 2-2z" fill="#e97424"/><path d="m53 23v10h-4v4h4a4 4 0 0 0 4-4v-10a2 2 0 0 0 -2-2 2 2 0 0 0 -2 2z" fill="#143441"/><path d="m42 42h-9v-2h9a1 1 0 0 1 1 1 1 1 0 0 1 -1 1z" fill="#394d5c"/><path d="m49 33h-16l-5 15h5l4-11h12z" fill="#195c85"/></g></svg>