<svg height="512" viewBox="0 0 64 64" width="512" xmlns="http://www.w3.org/2000/svg"><g id="flat"><path d="m31 43h12.681v4h-12.681z" fill="#aabece"/><path d="m36 24h2v8h-2z" fill="#d3843d"/><circle cx="52" cy="46" fill="#143441" r="9"/><circle cx="12" cy="46" fill="#143441" r="9"/><circle cx="12" cy="46" fill="#f4f4e6" r="5"/><circle cx="52" cy="46" fill="#f4f4e6" r="5"/><path d="m44 51h-11l-2-4h16z" fill="#cfdfe8"/><path d="m31 37h4v6h-4z" fill="#cfdfe8"/><path d="m44 35a3.279 3.279 0 0 1 -3 2h-6v6h12l5-6h5a4 4 0 0 0 -4-4h-6a3.279 3.279 0 0 0 -3 2z" fill="#5a6470"/><path d="m35 37c0-9-6.891-8.109-8-7l-2 2 6 5z" fill="#b11e48"/><path d="m15 42 17-17-3-3-20 20z" fill="#5a6470"/><path d="m26 25c0-1.657-3.343-3-5-3h-4v6h4c1.657 0 5-1.343 5-3z" fill="#143441"/><path d="m17 22h4v6h-4z" fill="#f9bb4b"/><path d="m31 37c-3.3 1.321-3.443 2-7 2h-6l7-7z" fill="#dd3e46"/><path d="m33 51h-4a4 4 0 0 1 -4-4 4 4 0 0 1 4-4h2v4z" fill="#5a6470"/><path d="m31 48h-2a1 1 0 0 1 0-2h2a1 1 0 0 1 0 2z" fill="#f4f4e6"/><path d="m31.082 22.862-2.082-.862 4-4.414v-4.586h2v5a1 1 0 0 1 -.293.707z" fill="#aabece"/><path d="m11 45h2v2h-2z" fill="#394d5c"/><path d="m51 45h2v2h-2z" fill="#394d5c"/><path d="m29 22h7a2 2 0 0 1 2 2 2 2 0 0 1 -2 2h-7a0 0 0 0 1 0 0v-4a0 0 0 0 1 0 0z" fill="#143441"/><rect fill="#cfdfe8" height="6" rx="2" width="4" x="33" y="9"/></g></svg>