<svg height="512" viewBox="0 0 64 64" width="512" xmlns="http://www.w3.org/2000/svg"><g id="flat"><circle cx="12" cy="44" fill="#143441" r="9"/><circle cx="12" cy="44" fill="#f4f4e6" r="5"/><circle cx="52" cy="44" fill="#143441" r="9"/><circle cx="52" cy="44" fill="#f4f4e6" r="5"/><path d="m11.828 39 8.172-10 4 4-8.172 10a2.828 2.828 0 0 1 -4 0 2.829 2.829 0 0 1 0-4z" fill="#394d5c"/><path d="m20 29h-10v-4l3-3h12a5.611 5.611 0 0 0 4-2 6.6 6.6 0 0 1 5-2h11l4 5 4 6h-4l-15 15-8-3-2-8z" fill="#8ec13f"/><path d="m53 29-4-6h-17l-4 4 2 11 7 3 12-12z" fill="#c8d952"/><path d="m49 23-4-5v-4h4z" fill="#aabece"/><path d="m39 10h6a4 4 0 0 1 4 4 0 0 0 0 1 0 0h-10a0 0 0 0 1 0 0v-4a0 0 0 0 1 0 0z" fill="#143441"/><path d="m52.006 43a1.993 1.993 0 0 1 -1.988-1.841l-1.018-12.159h4l.994 11.853a1.994 1.994 0 0 1 -1.988 2.147z" fill="#394d5c"/><g fill="#f4f4e6"><path d="m33 26h13v2h-13z"/><path d="m35 35h2v2h-2z"/><path d="m32 32h2v2h-2z"/></g></g></svg>