<svg height="512" viewBox="0 0 64 64" width="512" xmlns="http://www.w3.org/2000/svg"><g id="flat"><path d="m40 18a1 1 0 0 1 -.707-.293l-1.707-1.707h-3.586a1 1 0 0 1 0-2h4a1 1 0 0 1 .707.293l2 2a1 1 0 0 1 -.707 1.707z" fill="#143441"/><path d="m17.61 46.03a8.881 8.881 0 0 1 -4.61 1.91h-2a8.881 8.881 0 0 1 -4.61-1.91l-1.42-1.42a8.881 8.881 0 0 1 -1.91-4.61v-2a8.881 8.881 0 0 1 1.91-4.61l1.42-1.42a8.993 8.993 0 0 1 12.64 12.64z" fill="#143441"/><circle cx="12" cy="39" fill="#f4f4e6" r="3"/><path d="m58.15 45.56a8.922 8.922 0 0 1 -4.15 2.22l-2 .22a8.963 8.963 0 0 1 -5.61-1.97l-1.42-1.42a8.881 8.881 0 0 1 -1.91-4.61v-2a8.989 8.989 0 0 1 14.55-6.03l1.42 1.42a8.881 8.881 0 0 1 1.91 4.61v2a9.011 9.011 0 0 1 -1.48 4.04z" fill="#143441"/><path d="m5 20 22 3 7-2 9 3v3l-2 4-4 7-5 2-11-1v-5l5-2-4-6-12-1z" fill="#394d5c"/><path d="m8 29 13 10v-5l-11-9z" fill="#aabece"/><path d="m26 32-4-6-12-1 11 9z" fill="#3e8051"/><path d="m27 23-5 3 4 6 8-6 7 5 2-4v-3l-9-3z" fill="#55b56a"/><circle cx="31" cy="35" fill="#aabece" r="4"/><path d="m30 34h2v2h-2z" fill="#f4f4e6"/><path d="m43 24 3-3 4-1 8 7h-5l-4-3-6 3z" fill="#3e8051"/><path d="m43 27 4-2 5.251 11.553-2.854 2.174z" fill="#aabece"/><path d="m45 22v-3l-2-4-4 3 4 6z" fill="#55b56a"/><g fill="#5a6470"><path d="m6 38v2h-2.94a8.363 8.363 0 0 1 0-2z"/><path d="m13 45v2.94a8.363 8.363 0 0 1 -2 0v-2.94z"/><path d="m8.71 34.29-1.42 1.42-2.32-2.32a7.953 7.953 0 0 1 1.42-1.42z"/><path d="m8.71 43.71-2.32 2.32a7.953 7.953 0 0 1 -1.42-1.42l2.32-2.32z"/><path d="m19.03 44.61a7.953 7.953 0 0 1 -1.42 1.42l-2.32-2.32 1.42-1.42z"/><path d="m46 38v2h-2.94a8.363 8.363 0 0 1 0-2z"/><path d="m61 39a8.262 8.262 0 0 1 -.06 1h-2.94v-2h2.94a8.262 8.262 0 0 1 .06 1z"/><path d="m48.71 43.71-2.32 2.32a7.953 7.953 0 0 1 -1.42-1.42l2.32-2.32z"/><path d="m54 45v2.78a9.356 9.356 0 0 1 -2 .22v-3z"/><path d="m59.03 33.39-2.32 2.32-1.42-1.42 2.32-2.32a7.953 7.953 0 0 1 1.42 1.42z"/><path d="m59.46 44.04a8.68 8.68 0 0 1 -1.31 1.52l-2.36-2.35 1.42-1.42z"/></g><circle cx="52" cy="39" fill="#f4f4e6" r="3"/></g></svg>