<svg height="512" viewBox="0 0 64 64" width="512" xmlns="http://www.w3.org/2000/svg"><g id="flat"><path d="m34 42-3 6h-10v3l3 1h8a6.7 6.7 0 0 0 6-4l1-4c.3-.906-.058-2.157-1-2z" fill="#cfdfe8"/><path d="m19 29.05a6.793 6.793 0 0 1 3.99 1.94l1.01 1.01a2.837 2.837 0 0 0 4 0 3.51 3.51 0 0 1 2-1 2.006 2.006 0 0 1 2 2v5h-23v-4a5 5 0 0 1 4-4.9l1-.1h4.19z" fill="#143441"/><path d="m15 29v5h-2v-4.9a4.712 4.712 0 0 1 1-.1z" fill="#5a6470"/><path d="m19 29.05v5.95h-2v-6h1.19a7.337 7.337 0 0 1 .81.05z" fill="#5a6470"/><circle cx="12" cy="48" fill="#143441" r="9"/><circle cx="12" cy="48" fill="#f4f4e6" r="5"/><path d="m7 37a1 1 0 0 1 -1-1v-5a1 1 0 0 1 2 0v5a1 1 0 0 1 -1 1z" fill="#143441"/><path d="m35 19.351-3-8 1.873-.702 3.127 8.351z" fill="#394d5c"/><circle cx="52" cy="48" fill="#143441" r="9"/><path d="m18 44h-11a3.066 3.066 0 0 1 -3-4l1-4a2.885 2.885 0 0 1 3-2h10a2.652 2.652 0 0 1 3 3v4a2.867 2.867 0 0 1 -3 3z" fill="#394d5c"/><path d="m38 42-4.478 1.128-1.522-5.128h5.834a2.166 2.166 0 0 1 2.166 2.166c0 1.058-.956 1.66-2 1.834z" fill="#394d5c"/><path d="m40 38h-8v-4s3-4 7-4h5v4a4.012 4.012 0 0 1 -4 4z" fill="#195c85"/><path d="m53 33h-5v-3l3-5h2c2.209 0 3 1.791 3 4 0 2.209-.791 4-3 4z" fill="#cfdfe8"/><path d="m48 30h-4l-3-18c-.406-2.029.931-5 3-5z" fill="#4f97d5"/><path d="m44 30h-5l-4-7 2-4z" fill="#cfdfe8"/><path d="m35 23h-5a2 2 0 0 1 -2-2 2 2 0 0 1 2-2h7z" fill="#143441"/><path d="m30 44h-5l-4-6h7z" fill="#cfdfe8"/><path d="m51 25h2v8h-2z" fill="#aabece"/><path d="m51.631 42h9.369a5 5 0 0 0 -5-5h-5.882z" fill="#195c85"/><path d="m37 33h4v2h-4z" fill="#f4f4e6"/><circle cx="52" cy="48" fill="#f4f4e6" r="5"/><path d="m22 39h-17a1 1 0 0 1 0-2h17a1 1 0 0 1 0 2z" fill="#5a6470"/><path d="m32 38h-4l2 6h-16a2 2 0 0 0 -2 2 2 2 0 0 0 2 2h17c3.235-.042 4.055-2.889 3-5z" fill="#aabece"/><rect fill="#aabece" height="6" rx="2" width="4" x="30" y="9"/><path d="m46.788 39.792a10.757 10.757 0 0 0 -4.788 7.208l-1 5h8l.533-3.86z" fill="#195c85"/><path d="m48.841 47-4.841-17h4l4.841 16c1 3-3 4-4 1z" fill="#aabece"/><path d="m12 38h2v3h-2z" fill="#f9bb4b"/></g></svg>