<svg height="512" viewBox="0 0 64 64" width="512" xmlns="http://www.w3.org/2000/svg"><g id="flat"><path d="m40.525 43.944-1.306-1.569 4-5 3.383-1.027z" fill="#aabece"/><path d="m15 42h13v2h-13z" fill="#aabece"/><path d="m44 38h-10a3 3 0 0 1 -3-3 4.137 4.137 0 0 1 2-3l4-3a6.867 6.867 0 0 1 9 1l1 5c.364 1.455-1.5 3-3 3z" fill="#b11e48"/><path d="m45.02 19.2-1-5a3.284 3.284 0 0 0 -3.02-2.2v-2a5.309 5.309 0 0 1 4.961 3.725l1.231 5.989z" fill="#aabece"/><path d="m55 33h-6l-1-6h7a1.893 1.893 0 0 1 2 2v2a1.893 1.893 0 0 1 -2 2z" fill="#f9bb4b"/><path d="m48 27h5v6h-4z" fill="#394d5c"/><circle cx="12" cy="49" fill="#143441" r="9"/><circle cx="12" cy="49" fill="#f4f4e6" r="5"/><circle cx="52" cy="49" fill="#143441" r="9"/><circle cx="52" cy="49" fill="#f4f4e6" r="5"/><path d="m29 50h-2l-5-5v-3h11v4a3.971 3.971 0 0 1 -4 4z" fill="#394d5c"/><path d="m33 42h5a3 3 0 0 1 3 3v1a0 0 0 0 1 0 0h-8a0 0 0 0 1 0 0v-4a0 0 0 0 1 0 0z" fill="#cfdfe8"/><path d="m37 46v3a1 1 0 0 1 -1 1h-21.958a2 2 0 0 0 -2 2 2 2 0 0 0 2 2h21.958a5 5 0 0 0 5-5v-3z" fill="#aabece"/><path d="m54 47c0 2-3 3-4 1l-8-29h4z" fill="#cfdfe8"/><path d="m35 42h-8a2 2 0 0 1 -2-2 2 2 0 0 1 2-2h6z" fill="#aabece"/><path d="m24 32.14a4.089 4.089 0 0 1 3 3.86v2h-13a3 3 0 0 1 0-6h9z" fill="#143441"/><g fill="#5a6470"><path d="m14 32h2v6h-2z"/><path d="m18 32h2v6h-2z"/><path d="m24 32.14v5.86h-2v-6h1a3.715 3.715 0 0 1 1 .14z"/></g><path d="m47 24h-3l-5-1v-4h7a3.216 3.216 0 0 1 3 2 2.19 2.19 0 0 1 -2 3z" fill="#143441"/><path d="m39 23-6 2c-.95.238-2-.949-2-1.929a2.653 2.653 0 0 1 2.01-2.571l5.99-1.5z" fill="#394d5c"/><rect fill="#394d5c" height="8" rx="2" width="4" x="37" y="6"/><path d="m38 32h4v2h-4z" fill="#f4f4e6"/><path d="m28 45h2v2h-2z" fill="#f4f4e6"/><path d="m9 38h6a6 6 0 0 1 6 6 0 0 0 0 1 0 0h-18a0 0 0 0 1 0 0 6 6 0 0 1 6-6z" fill="#394d5c"/></g></svg>