<svg height="512" viewBox="0 0 64 64" width="512" xmlns="http://www.w3.org/2000/svg"><g id="flat"><path d="m44 28v-10l5 4h3v10z" fill="#b11e48"/><path d="m52 22h1a3 3 0 0 1 3 3 3 3 0 0 1 -3 3h-1a0 0 0 0 1 0 0v-6a0 0 0 0 1 0 0z" fill="#f9bb4b"/><circle cx="56" cy="41" fill="#143441" r="5"/><circle cx="18" cy="41" fill="#143441" r="5"/><path d="m25 35-7 7h-15l3.57-5 1.43-2c1.34-1.92 2.65-3 5-3h9z" fill="#b11e48"/><path d="m22 38 3 4h2l4-4v-3h-6z" fill="#aabece"/><path d="m31 35 3-3h10v-4l-4-2c-3.863 0-6.129.416-9 3l-6 6z" fill="#b11e48"/><path d="m38 42h-11l4-4v-3l3-3h10v4z" fill="#cfdfe8"/><path d="m44 28 4-2 5 7-3.286 3z" fill="#cfdfe8"/><path d="m61 35-6-3.065a7.085 7.085 0 0 0 -5 2.065 9.688 9.688 0 0 0 -3 7v2h6z" fill="#b11e48"/><path d="m36 36h8a0 0 0 0 1 0 0 6 6 0 0 1 -6 6h-2a0 0 0 0 1 0 0v-6a0 0 0 0 1 0 0z" fill="#5a6470"/><path d="m16 30a2 2 0 0 1 2-2h6l4 4-3 3-3-3h-4a2 2 0 0 1 -2-2z" fill="#394d5c"/><path d="m44 28-4-2v-4h4z" fill="#cfdfe8"/><path d="m34 18h6a0 0 0 0 1 0 0v4a0 0 0 0 1 0 0h-6a2 2 0 0 1 -2-2 2 2 0 0 1 2-2z" fill="#394d5c"/><path d="m40 18h4v4h-4z" fill="#143441"/><circle cx="38" cy="36" fill="#aabece" r="2"/><path d="m25 35-2 2h-16.43l1.43-2z" fill="#f98c96"/></g></svg>