<svg height="512" viewBox="0 0 64 64" width="512" xmlns="http://www.w3.org/2000/svg"><g id="flat"><path d="m19 44h5v-5l-5-5z" fill="#5a6470"/><path d="m40 19h-2v-6.465l-2-1.535v-2l3.555 2.168a1 1 0 0 1 .445.832z" fill="#576670"/><path d="m58.845 42.156a9 9 0 1 1 -15.79 6.844z" fill="#143441"/><path d="m35 44 1-6h-4l-8 2v8h11z" fill="#aabece"/><circle cx="12" cy="48" fill="#143441" r="9"/><circle cx="12" cy="48" fill="#f4f4e6" r="5"/><path d="m40 38h-8v-4s3-4 7-4h5v4a4.012 4.012 0 0 1 -4 4z" fill="#195c85"/><path d="m53 33h-4l-1-3 3-5h2c2.209 0 3 1.791 3 4 0 2.209-.791 4-3 4z" fill="#5a6470"/><path d="m45 30h-4l-4-8h4z" fill="#cfdfe8"/><path d="m35 22h-5a2 2 0 0 1 -2-2 2 2 0 0 1 2-2h5z" fill="#143441"/><path d="m30 31a3.5 3.5 0 0 0 -2 1c-2 2-4.972.343-6 0-3-1-4 2-3 3l5 5 8-2v-5a2.006 2.006 0 0 0 -2-2z" fill="#143441"/><path d="m31 48h-10l3 4h8c2.5 0 5.07-2.675 6-5l-3-3z" fill="#5a6470"/><path d="m51 25h2v8h-2z" fill="#f9bb4b"/><path d="m37 33h4v2h-4z" fill="#50b4f8"/><circle cx="52" cy="48" fill="#f4f4e6" r="5"/><path d="m5 44h19a0 0 0 0 1 0 0v4a0 0 0 0 1 0 0h-19a2 2 0 0 1 -2-2 2 2 0 0 1 2-2z" fill="#cfdfe8"/><circle cx="31" cy="44" fill="#394d5c" r="4"/><path d="m3 40h16v4h-16z" fill="#66342e"/><path d="m9 34h7a3 3 0 0 1 3 3v3a0 0 0 0 1 0 0h-16a0 0 0 0 1 0 0 6 6 0 0 1 6-6z" fill="#ad6327"/><path d="m18 34h-10v-1a3.03 3.03 0 0 1 3-3h1a9.613 9.613 0 0 0 4-1c.814-.4 2 .093 2 1z" fill="#143441"/><g fill="#f9bb4b"><path d="m4 30h4v4h-4z"/><path d="m14 37h2v3h-2z"/><path d="m7 37h2v3h-2z"/></g><path d="m9 24h-2l-1-3c-1-3 .958-4 2-4h1a2 2 0 0 1 2 2v3a2.061 2.061 0 0 1 -2 2z" fill="#143441"/><path d="m58.845 42.156a9 9 0 0 0 -15.845 5.844 9.168 9.168 0 0 0 .055 1h8.945z" fill="#195c85"/><path d="m39 26h9v4h-9z" fill="#5a6470"/><path d="m44 22h4v4h-4z" fill="#394d5c"/><path d="m35 44 3 3 2-9h-4z" fill="#cfdfe8"/><path d="m36 11-4 2v-6l4 2z" fill="#cfdfe8"/><path d="m35 18h4a2 2 0 0 1 2 2v2a0 0 0 0 1 0 0h-6a0 0 0 0 1 0 0v-4a0 0 0 0 1 0 0z" fill="#195c85"/><path d="m49 47-5-17h4l5 16c1 3-3 4-4 1z" fill="#cfdfe8"/><path d="m7 24h2a2 2 0 0 1 2 2v8a0 0 0 0 1 0 0h-4a0 0 0 0 1 0 0v-10a0 0 0 0 1 0 0z" fill="#5a6470"/></g></svg>