<svg height="512" viewBox="0 0 64 64" width="512" xmlns="http://www.w3.org/2000/svg"><g id="flat"><path d="m46 14h-1v2h1a3 3 0 0 1 3 3v1h2v-1a5.006 5.006 0 0 0 -5-5z" fill="#5a6470"/><path d="m15 40h-4l4-10h4z" fill="#aabece"/><circle cx="52" cy="47" fill="#143441" r="9"/><circle cx="12" cy="47" fill="#143441" r="9"/><circle cx="52" cy="47" fill="#f4f4e6" r="5"/><path d="m51 20h-4l3 23v2a2 2 0 0 0 4 0v-2z" fill="#aabece"/><circle cx="12" cy="47" fill="#f4f4e6" r="5"/><path d="m26 42h4a4 4 0 0 1 4 4v4a0 0 0 0 1 0 0h-4a4 4 0 0 1 -4-4v-4a0 0 0 0 1 0 0z" fill="#394d5c"/><path d="m21 42h5v4h-5z" fill="#5a6470"/><path d="m24 34h11v4h-11z" fill="#cfdfe8"/><path d="m35 34v4h2l-3 12h-13l-14-16a1.431 1.431 0 0 0 -2-.027c-1.127 1.143-2.057 2.819-1 4.027l12 14c1.281 1.281 2 2 5 2h13a3.871 3.871 0 0 0 4-3l3-13a4 4 0 0 0 -4-4z" fill="#5a6470"/><circle cx="24" cy="36" fill="#143441" r="2"/><path d="m15 26h4v4h-4z" fill="#cfdfe8"/><path d="m11 26h4a0 0 0 0 1 0 0v4a0 0 0 0 1 0 0 4 4 0 0 1 -4-4 0 0 0 0 1 0 0z" fill="#5a6470"/><path d="m27 30 4 4h-7l-4-4z" fill="#aabece"/><path d="m49 30h-22v-8a4.887 4.887 0 0 1 5-5h8a7.754 7.754 0 0 1 8 7z" fill="#394d5c"/><path d="m14 22-1-2c-1.546-2.706-5.294-2.546-8-1l-2 1v3h3c3 0 5 1 5 3h16v-4z" fill="#394d5c"/><path d="m26 38h4v4h-4z" fill="#aabece"/><path d="m29 45h2v2h-2z" fill="#f4f4e6"/><path d="m40 30h2a0 0 0 0 1 0 0v4a0 0 0 0 1 0 0h-2a2 2 0 0 1 -2-2 2 2 0 0 1 2-2z" fill="#5a6470"/><path d="m38 20h2v2h-2z" fill="#5a6470"/><path d="m57.619 13a14.879 14.879 0 0 1 1.381 2 11.449 11.449 0 0 1 1.4 2.87c.03.08.05.16.08.24l-.46 6.96a8.977 8.977 0 0 1 -8.02 4.93h-12a2.5 2.5 0 0 1 -2.51-2.51 2.443 2.443 0 0 1 .51-1.49c1.32-1.59 2.93-2 5-2h3a10.041 10.041 0 0 0 8-4 3.122 3.122 0 0 0 .43-1.8 5.451 5.451 0 0 0 -.43-2.2 8.18 8.18 0 0 0 -2.821-3z" fill="#143441"/><path d="m39 12h8a0 0 0 0 1 0 0v2a3 3 0 0 1 -3 3h-4a3 3 0 0 1 -3-3 2 2 0 0 1 2-2z" fill="#cfdfe8"/><path d="m3 23h2a2 2 0 0 1 2 2 2 2 0 0 1 -2 2h-2a0 0 0 0 1 0 0v-4a0 0 0 0 1 0 0z" fill="#f9bb4b"/><path d="m14 22h13v4h-13z" fill="#143441"/><path d="m30 21h6v2h-6z" fill="#5a6470"/><path d="m48 8.057s-2.67-.057-3-.057h-.06a1.941 1.941 0 0 0 -1.94 1.94v.06a2 2 0 0 0 2 2h2.529a7.219 7.219 0 0 1 3.65 1h6.44a13.3 13.3 0 0 0 -9.619-4.943z" fill="#aabece"/><path d="m19 26h10a2 2 0 0 1 2 2 2 2 0 0 1 -2 2h-10a0 0 0 0 1 0 0v-4a0 0 0 0 1 0 0z" fill="#5a6470"/><path d="m61 21a8.86 8.86 0 0 1 -.98 4.07 3.5 3.5 0 0 1 -2.63-1.57c-1.28-2.43.84-4.81 3.09-5.39a9.879 9.879 0 0 1 .52 2.89z" fill="#f9bb4b"/></g></svg>