<svg height="512" viewBox="0 0 64 64" width="512" xmlns="http://www.w3.org/2000/svg"><g id="flat"><path d="m8 21h8l4 6v4h-11c-1.81 0-2.44-.32-3.12-2l-.88-3z" fill="#2d75bb"/><path d="m14 26h6v2h-6z" fill="#e33e5c"/><circle cx="14" cy="50" fill="#143441" r="9"/><circle cx="14" cy="50" fill="#f4f4e6" r="5"/><path d="m10 35h15v5l-4 9h-14a3.155 3.155 0 0 1 -3-4l1.182-4z" fill="#195c85"/><path d="m61 50a9 9 0 1 1 -17.685-2.369z" fill="#143441"/><path d="m7 24h-2v-19a1 1 0 0 1 1-1 1 1 0 0 1 1 1z" fill="#7fcac9"/><path d="m58 19h-5v4h-6v6a5.913 5.913 0 0 0 6 6h6l2-3v-9z" fill="#394d5c"/><circle cx="52" cy="50" fill="#f4f4e6" r="5"/><path d="m35 41v5a3 3 0 0 1 -3 3h-26a3 3 0 0 0 -3 3 3 3 0 0 0 3 3h16l2-2h8a7 7 0 0 0 7-7v-5z" fill="#aabece"/><path d="m39 35h4a0 0 0 0 1 0 0v6a0 0 0 0 1 0 0h-8a0 0 0 0 1 0 0v-2a4 4 0 0 1 4-4z" fill="#5a6470"/><circle cx="41" cy="41" fill="#aabece" r="2"/><g fill="#2d75bb"><path d="m47 35h-12v-4a5.123 5.123 0 0 1 3.881-4.97l5.119-1.223a2.228 2.228 0 0 1 3 2.193z"/><path d="m52 41a9 9 0 0 0 -8.685 6.631l8.685 2.369h9a9 9 0 0 0 -9-9z"/><path d="m10 35a4.106 4.106 0 0 0 -4 3l-.818 3h16.818l3-1v-5z"/></g><path d="m31 35h-6v5l-4 9h6l4-6z" fill="#5a6470"/><path d="m31 39h4v4h-4z" fill="#cfdfe8"/><path d="m10 41h8v4h-8z" fill="#f9bb4b"/><path d="m11 21h-3c-3.479 0-3.958 2.605-3 5h6z" fill="#f9bb4b"/><path d="m25 31c0-2.589-.382-5.978-2-8l-2-2v-5a3.1 3.1 0 0 0 -3-3 2.868 2.868 0 0 0 -3 3v5l4 6v4a3.716 3.716 0 0 0 4 4h12v-4z" fill="#143441"/><path d="m57 27h4v4h-4z" fill="#f9bb4b"/><path d="m58 19-4-12c-2.094 0-3.344 1.935-3 4l1 8z" fill="#96c3f0"/><path d="m47 17h-9a2 2 0 0 1 -2-2 2 2 0 0 1 2-2h5a4 4 0 0 1 4 4z" fill="#aabece"/><path d="m53 23h-6l-4-6h4l2 2h4z" fill="#143441"/><path d="m47 23h14v4h-14z" fill="#5a6470"/><path d="m53 23v-4h5l3 4z" fill="#394d5c"/><path d="m52 30h2v2h-2z" fill="#f4f4e6"/><path d="m40 29h4v2h-4z" fill="#50b4f8"/><path d="m31 43-6-3v-5h6z" fill="#394d5c"/><path d="m49 48-6-11v-2h4l6 12c1 3-3 4-4 1z" fill="#aabece"/></g></svg>