<svg height="512" viewBox="0 0 64 64" width="512" xmlns="http://www.w3.org/2000/svg"><g id="flat"><path d="m31 3h1a29 29 0 0 1 29 29v6a13 13 0 0 1 -13 13h-32a13 13 0 0 1 -13-13v-7a28 28 0 0 1 28-28z" fill="#995f5b"/><path d="m3 31h10a0 0 0 0 1 0 0v27.083a2.917 2.917 0 0 1 -2.917 2.917h-.083a7 7 0 0 1 -7-7v-23a0 0 0 0 1 0 0z" fill="#b5554e"/><path d="m58 31a3 3 0 0 1 3 3v27a0 0 0 0 1 0 0h-10a0 0 0 0 1 0 0v-23a7 7 0 0 1 7-7z" fill="#b5554e" transform="matrix(-1 0 0 -1 112 92)"/><path d="m3 31h58v8h-58z" fill="#d3843d"/><path d="m46 31h-28a9.988 9.988 0 0 0 -10 9.917v.083a10 10 0 0 0 10 10c7.7 0 14-4.383 14-12.083v.083c0 7.686 6.314 12 14 12a10 10 0 1 0 0-20z" fill="#143441"/><path d="m17 35h8a3 3 0 0 1 3 3 9 9 0 0 1 -9 9 7 7 0 0 1 -7-7 5 5 0 0 1 5-5z" fill="#195c85"/><circle cx="17" cy="26" fill="#394d5c" r="2"/><circle cx="47" cy="26" fill="#394d5c" r="2"/><g fill="#f4f4e6"><path d="m43.424 11.817a21.246 21.246 0 0 0 -10.507-3.817l.166-2a23.213 23.213 0 0 1 11.493 4.179z"/><path d="m46 12h2v2h-2z"/><path d="m17 35h8a3 3 0 0 1 3 3 9 9 0 0 1 -9 9 7 7 0 0 1 -7-7 5 5 0 0 1 5-5z"/><path d="m43 35a9 9 0 0 1 9 9 3 3 0 0 1 -3 3h-8a5 5 0 0 1 -5-5 7 7 0 0 1 7-7z" transform="matrix(-1 0 0 -1 88 82)"/></g></g></svg>