<svg height="512" viewBox="0 0 64 64" width="512" xmlns="http://www.w3.org/2000/svg"><g id="flat"><path d="m56.77 17a28.639 28.639 0 0 1 4.23 15v1h-18l-12 6.71v16.29l-8 3-12-4-8-14v-9a28.7 28.7 0 0 1 28-28.99 29.2 29.2 0 0 1 20.9 7.99z" fill="#195c85"/><path d="m61 33h-22a10.029 10.029 0 0 0 -10 10v9a5.151 5.151 0 0 1 -6 5 18.725 18.725 0 0 1 -10-4 16.981 16.981 0 0 1 -5-7c-.186-.5-.338-.988-.462-1.455a4.694 4.694 0 0 0 -4.511-3.545h-.027c0 12.15 9.85 20 22 20a7.98 7.98 0 0 0 6.461-3.3h-.008a7.969 7.969 0 0 0 1.421-3.328c.011-.063.02-.128.029-.192a7.787 7.787 0 0 0 .097-1.18v-9c0-4.418 2.582-7 7-7h16c3 0 5-1 5-4z" fill="#7fcac9"/><path d="m3 33h6v8h-6z" fill="#4f97d5"/><circle cx="31" cy="29" fill="#f4f4e6" r="2"/><path d="m8.98 27.2-1.96-.4a26.573 26.573 0 0 1 2.08-6.232 27.247 27.247 0 0 1 6.229-8.308 27.741 27.741 0 0 1 4.151-3.113l1.044 1.706a25.591 25.591 0 0 0 -3.849 2.887 25.234 25.234 0 0 0 -5.775 7.692 24.576 24.576 0 0 0 -1.92 5.768z" fill="#50b4f8"/><path d="m22 8h2v2h-2z" fill="#50b4f8"/><path d="m56.77 17h-18.77v-6h13.9a29.028 29.028 0 0 1 4.87 6z" fill="#4f97d5"/></g></svg>