<svg height="512" viewBox="0 0 64 64" width="512" xmlns="http://www.w3.org/2000/svg"><g id="flat"><path d="m33 42h-10a3 3 0 0 1 -3-3 8 8 0 0 1 8-8h7v9z" fill="#cfdfe8"/><path d="m37 45h-4v-2h4a1 1 0 0 0 0-2h-5v-2h5a3 3 0 0 1 0 6z" fill="#5a6470"/><path d="m54 17h-2l-.007 7.616a4.49 4.49 0 0 0 2.007.384 2 2 0 0 0 2-2v-4a2 2 0 0 0 -2-2z" fill="#f9bb4b"/><path d="m51.993 24.616a5.636 5.636 0 0 1 -.993-.616l-2-1-1-4a1.986 1.986 0 0 1 2-2h2z" fill="#394d5c"/><circle cx="52" cy="44" fill="#394d5c" r="9"/><circle cx="52" cy="44" fill="#f4f4e6" r="5"/><path d="m54 44h-4l-5-21-1-4h4l1 4z" fill="#cfdfe8"/><path d="m14 31h2v6.165h-2z" fill="#5a6470"/><circle cx="12" cy="44" fill="#394d5c" r="9"/><circle cx="12" cy="44" fill="#f4f4e6" r="5"/><path d="m13 24h4v7h-4z" fill="#aabece"/><path d="m21 42-5-2-3 1v3l8 2h12v-4z" fill="#aabece"/><path d="m33 42h-2v-4h2a2 2 0 0 1 2 2 2.151 2.151 0 0 1 -2 2z" fill="#394d5c"/><path d="m28 36h1a2 2 0 0 1 2 2v4a0 0 0 0 1 0 0h-3a3 3 0 0 1 -3-3 3 3 0 0 1 3-3z" fill="#5a6470"/><path d="m21 21a3.5 3.5 0 0 0 -2-1h-7a2 2 0 0 0 -2 2 2 2 0 0 0 2 2h6a7.233 7.233 0 0 0 5 2h10v-4h-10a3.5 3.5 0 0 1 -2-1z" fill="#394d5c"/><path d="m50.905 31-1.905-8-1-4h-4l1 4 1.905 8z" fill="#aabece"/><path d="m13 24h-2c-8 0-8 6.189-8 8v2.172c3-4.172 5-6.172 10-6.172z" fill="#5a6470"/><path d="m44 11a4 4 0 0 1 4 4v4a0 0 0 0 1 0 0h-4a0 0 0 0 1 0 0v-8a0 0 0 0 1 0 0z" fill="#cfdfe8"/><path d="m38 11h6a0 0 0 0 1 0 0v4a0 0 0 0 1 0 0h-6a2 2 0 0 1 -2-2 2 2 0 0 1 2-2z" fill="#394d5c"/><path d="m39 31h-5a3.009 3.009 0 0 1 -3-3v-3a6 6 0 0 1 6-6h7l1 4-2.891 6.336a3.736 3.736 0 0 1 -3.109 1.664z" fill="#e33e5c"/><g fill="#f98c96"><path d="m39 22h2v2h-2z"/><path d="m39 28h-4a1 1 0 0 1 0-2h4a1 1 0 0 1 0 2z"/></g></g></svg>