<svg height="512" viewBox="0 0 64 64" width="512" xmlns="http://www.w3.org/2000/svg"><g id="flat"><path d="m21 52a9 9 0 1 1 -15.364-6.364z" fill="#394d5c"/><circle cx="12" cy="52" fill="#f4f4e6" r="5"/><path d="m12 43a8.972 8.972 0 0 0 -6.364 2.636l6.364 6.364h9a9 9 0 0 0 -9-9z" fill="#2d75bb"/><path d="m46 33h7a8 8 0 0 1 8 8c-5 0-4-4-8-4h-5z" fill="#5a6470"/><path d="m54 44h-5l-5-8v-3h3z" fill="#cfdfe8"/><path d="m31 20-3-1h-7l2-4h5l3-1z" fill="#143441"/><path d="m20 23-4-7a2.122 2.122 0 0 0 -3 0 2.122 2.122 0 0 0 0 3l3 4z" fill="#cfdfe8"/><path d="m12 22a4 4 0 0 1 4 4 4 4 0 0 1 -4 4z" fill="#5a6470"/><circle cx="52" cy="52" fill="#394d5c" r="9"/><circle cx="52" cy="52" fill="#f4f4e6" r="5"/><path d="m37 46h-6v-6h6a3 3 0 0 1 3 3 3 3 0 0 1 -3 3z" fill="#cfdfe8"/><path d="m53 50h-14-11v-4h17l7 1z" fill="#aabece"/><path d="m39 40h-7v-3a4 4 0 0 1 4-4h8v3c0 2.157-2.843 4-5 4z" fill="#aabece"/><path d="m37 33h-17v-6a13.223 13.223 0 0 1 7-2h2a8.024 8.024 0 0 1 8 8z" fill="#2d75bb"/><path d="m50 33h-13v-3a3 3 0 0 1 3-3h10a3 3 0 0 1 3 3 3 3 0 0 1 -3 3z" fill="#143441"/><path d="m12 52-2-2 6-23h4v3l-6 22z" fill="#cfdfe8"/><path d="m16 23h4v4h-4z" fill="#5a6470"/><path d="m20 23 3-8h-4l-3 8z" fill="#aabece"/><path d="m23 3h4v7h-4z" fill="#aabece"/><path d="m21 15h-2v-7a1 1 0 0 1 1-1h3v2h-2z" fill="#5a6470"/><path d="m24 44a10 10 0 0 1 -4-8v-3h4z" fill="#5a6470"/><path d="m28 50v-6l-4-4v10a4 4 0 0 0 4 4h21a4 4 0 0 0 4-4z" fill="#cfdfe8"/><path d="m57 30h4v4h-4z" fill="#f9bb4b"/><path d="m46 27h2v6h-2z" fill="#5a6470"/><path d="m20 28h10v2h-10z" fill="#50b4f8"/><circle cx="14" cy="32" fill="#f9bb4b" r="2"/><path d="m10 22a1.893 1.893 0 0 0 -2 2v4a1.893 1.893 0 0 0 2 2h2v-8z" fill="#f9bb4b"/><path d="m30.275 41.275-6.275-6.275v-2h3l5 5v2z" fill="#cfdfe8"/><circle cx="31" cy="43" fill="#394d5c" r="3"/></g></svg>