<svg height="512" viewBox="0 0 64 64" width="512" xmlns="http://www.w3.org/2000/svg"><g id="flat"><path d="m15 39h-4l4-10h4z" fill="#5a6470"/><circle cx="12" cy="47" fill="#143441" r="9"/><circle cx="12" cy="47" fill="#f4f4e6" r="5"/><path d="m49 29h-17l-3-4 3-4a9.078 9.078 0 0 1 7-3h3a6 6 0 0 1 6 6z" fill="#b11e48"/><path d="m3.707 28.707-1.414-1.414 2.707-2.293 3.43-.55z" fill="#aabece"/><path d="m29 25h-10c-2.741 0-3.774-1.549-5-4h18z" fill="#143441"/><path d="m16.658 22.317-.658-1.317h-6c-4-.055-4.224 1.671-5 4h5c2.741 0 3.774 1.549 5 4h17l-3-4h-8a4.856 4.856 0 0 1 -4.342-2.683z" fill="#5a6470"/><circle cx="37" cy="41" fill="#394d5c" r="3"/><path d="m42 35-4 14h-16l-12-12c-1.5-1.5-5 0-3 3l11 11c1.281 1.281 2.189 2 4 2h16a3.871 3.871 0 0 0 4-3l4-15z" fill="#cfdfe8"/><path d="m28 37 8-8h-6l-5.263 5.263-4.737-5.263h-5l7 7.778v12.222h4v-9l7 9h5z" fill="#aabece"/><path d="m42 33h-4l-2-1v-3h6z" fill="#394d5c"/><path d="m42 29h4v6h-4z" fill="#aabece"/><circle cx="30" cy="40" fill="#5a6470" r="4"/><path d="m38 24h7v2h-7z" fill="#f98c96"/><path d="m34 24h2v2h-2z" fill="#f98c96"/><circle cx="52" cy="47" fill="#143441" r="9"/><circle cx="52" cy="47" fill="#f4f4e6" r="5"/><path d="m54 46h-4l-3-30h4z" fill="#aabece"/><path d="m55 12h1a0 0 0 0 1 0 0v8a0 0 0 0 1 0 0h-1a4 4 0 0 1 -4-4 4 4 0 0 1 4-4z" fill="#4f97d5"/><path d="m41 12h10a0 0 0 0 1 0 0v4a0 0 0 0 1 0 0h-10a2 2 0 0 1 -2-2 2 2 0 0 1 2-2z" fill="#143441"/><path d="m47 8h4v4h-4z" fill="#cfdfe8"/></g></svg>