<svg height="512" viewBox="0 0 64 64" width="512" xmlns="http://www.w3.org/2000/svg"><g id="flat"><path d="m4 36h-2v-3a1 1 0 0 1 .293-.707l5.107-5.072.746 2.045-4.146 4.148z" fill="#aabece"/><path d="m46.11 29a3 3 0 0 1 -3.11 3h-17v-5l.6-.8a8.009 8.009 0 0 1 6.4-3.2h8a4.673 4.673 0 0 1 5.01 4z" fill="#d3843d"/><path d="m46.15 28.36a4.49 4.49 0 0 1 -.04.64h-20.11v-2h20.01a7.137 7.137 0 0 1 .14 1.36z" fill="#f9bb4b"/><path d="m57.857 42.167a9 9 0 1 1 -14.857 6.833z" fill="#143441"/><circle cx="52" cy="49" fill="#f4f4e6" r="5"/><path d="m57.857 42.167a9 9 0 0 0 -14.857 6.833h9z" fill="#5a6470"/><path d="m49 28h9v2h-9z" fill="#143441"/><path d="m56.318 26.414-4.851-3.234 2.088-1.012 4.405 2.937z" fill="#143441"/><path d="m44.126 17.486-5-9 .874-1.486 5.874 9.514z" fill="#576670"/><circle cx="12" cy="49" fill="#143441" r="9"/><circle cx="12" cy="49" fill="#f4f4e6" r="5"/><path d="m14 48h-4l4-16h4z" fill="#aabece"/><path d="m54 46h-4l-5-23h4z" fill="#cfdfe8"/><path d="m39 36-4 9c-.347.81-1.119 1-2 1h-10l-4-2h-3a2.006 2.006 0 0 0 -2 2v2a2.006 2.006 0 0 0 2 2h18c1.772 0 3.3-.371 4-2l5-12z" fill="#cfdfe8"/><path d="m39 28v8l-1 4h-5v-8l2-4z" fill="#394d5c"/><path d="m24 38h-3l-7-6h19l-6 5a4.2 4.2 0 0 1 -1 .66z" fill="#cfdfe8"/><path d="m27 30-1 2h-12l-.94-.38-1.92-.77-1.86-.74-.28-.11c-1.03-.29-2-.93-2-2a1.954 1.954 0 0 1 2.04-2.12 3.212 3.212 0 0 1 .84.12l.95.23 1.96.48 1.19.29h11.02c1.84 0 2.95 1.42 2 3z" fill="#143441"/><path d="m39 32h4v4h-4z" fill="#aabece"/><g fill="#5a6470"><path d="m45 19h4v4h-4z"/><path d="m49 23 3-4 3 3c-1.482 1.482-4.256 2.163-6 1z"/><path d="m61 30h-4a3 3 0 0 1 -3-3l4-3h3z"/></g><path d="m39 15h6a0 0 0 0 1 0 0v4a0 0 0 0 1 0 0h-6a2 2 0 0 1 -2-2 2 2 0 0 1 2-2z" fill="#143441"/><path d="m45 15h.125a3.875 3.875 0 0 1 3.875 3.875v.125a0 0 0 0 1 0 0h-4a0 0 0 0 1 0 0v-4a0 0 0 0 1 0 0z" fill="#aabece"/><path d="m31 42h-6l-4-4h12v2z" fill="#5a6470"/><path d="m39 31v2h-6v-1l.5-1z" fill="#5a6470"/><path d="m39 35v1l-.25 1h-5.75v-2z" fill="#5a6470"/><path d="m27 42h4v4h-4z" fill="#aabece"/><path d="m26 32v5.66a4.539 4.539 0 0 1 -2 .34v-6z" fill="#f4f4e6"/><path d="m12.79 26.71-1.65 4.14-1.86-.74 1.55-3.88z" fill="#394d5c"/><path d="m16.02 27-1 5h-1.02l-.94-.38.92-4.62z" fill="#394d5c"/><path d="m18 27h2v5h-2z" fill="#394d5c"/><path d="m40 10-4 1v-5l4 1z" fill="#aabece"/></g></svg>