<svg height="512" viewBox="0 0 64 64" width="512" xmlns="http://www.w3.org/2000/svg"><g id="flat"><path d="m39.393 38.12 2.235-3.049 5.744-2.297.752 1.854z" fill="#143441"/><path d="m39 44-1-4h-5v8h3c2.017 0 3.25-2 3-4z" fill="#5a6470"/><path d="m36 29h6v7h-6z" fill="#5a6470"/><path d="m17.61 52.03a8.8 8.8 0 0 1 -4.61 1.91h-2a8.881 8.881 0 0 1 -4.61-1.91l-1.42-1.42a8.881 8.881 0 0 1 -1.91-4.61v-2a8.881 8.881 0 0 1 1.91-4.61l1.42-1.42a8.993 8.993 0 0 1 12.64 12.64z" fill="#143441"/><circle cx="12" cy="45" fill="#f4f4e6" r="3"/><path d="m13 51v2.94a8.363 8.363 0 0 1 -2 0v-2.94z" fill="#5a6470"/><path d="m6 44v2h-2.94a8.363 8.363 0 0 1 0-2z" fill="#5a6470"/><path d="m19.03 50.61a8.3 8.3 0 0 1 -1.42 1.42l-2.32-2.32 1.42-1.42z" fill="#5a6470"/><path d="m8.71 49.71-2.32 2.32a8.67 8.67 0 0 1 -1.42-1.42l2.32-2.32z" fill="#5a6470"/><path d="m8.71 40.29-1.42 1.42-2.32-2.32a7.953 7.953 0 0 1 1.42-1.42z" fill="#5a6470"/><path d="m57.61 52.03a8.881 8.881 0 0 1 -4.61 1.91h-2a8.881 8.881 0 0 1 -4.61-1.91l-1.42-1.42a8.881 8.881 0 0 1 -1.91-4.61v-2a8.989 8.989 0 0 1 14.55-6.03l1.42 1.42a8.8 8.8 0 0 1 1.91 4.61v2a8.881 8.881 0 0 1 -1.91 4.61z" fill="#143441"/><circle cx="52" cy="45" fill="#f4f4e6" r="3"/><g fill="#5a6470"><path d="m53 51v2.94a8.363 8.363 0 0 1 -2 0v-2.94z"/><path d="m46 44v2h-2.94a8.363 8.363 0 0 1 0-2z"/><path d="m61 45a8.262 8.262 0 0 1 -.06 1h-2.94v-2h2.94a8.262 8.262 0 0 1 .06 1z"/><path d="m59.03 50.61a8.67 8.67 0 0 1 -1.42 1.42l-2.32-2.32 1.42-1.42z"/><path d="m48.71 49.71-2.32 2.32a8.67 8.67 0 0 1 -1.42-1.42l2.32-2.32z"/><path d="m59.03 39.39-2.32 2.32-1.42-1.42 2.32-2.32a8.3 8.3 0 0 1 1.42 1.42z"/></g><path d="m51 44-4-10 4-1 4 10c1 3-3 4-4 1z" fill="#cfdfe8"/><path d="m33 48h-12v-4h13z" fill="#aabece"/><path d="m12 43a1 1 0 0 1 -1-1v-13h2v13a1 1 0 0 1 -1 1z" fill="#5a6470"/><path d="m23 31 5 5h4a3.3 3.3 0 0 0 -2.831-5z" fill="#5a6470"/><path d="m35.43 23a8.339 8.339 0 0 1 7.57-5 3.995 3.995 0 0 1 4 4 9.014 9.014 0 0 1 -9 9 3 3 0 0 1 -3-3v-2.78z" fill="#3e8051"/><path d="m51 33-4 1v-12h4z" fill="#aabece"/><path d="m38 40-6-4h10z" fill="#aabece"/><path d="m20 44h5v4h-5z" fill="#394d5c"/><path d="m26.764 27h-13.657a2.075 2.075 0 0 0 -2.08 1.664 2 2 0 0 0 1.973 2.336h16a6 6 0 0 0 6-6 2 2 0 0 0 -2-2c-1.226 0-4.866 4-6.236 4z" fill="#143441"/><path d="m47 18h4v4h-4z" fill="#cfdfe8"/><path d="m7 34h-4c0-2.209 2.791-5 5-5h3v2z" fill="#3e8051"/><path d="m7 25h2a2 2 0 0 1 2 2 2 2 0 0 1 -2 2h-2a0 0 0 0 1 0 0v-4a0 0 0 0 1 0 0z" fill="#f9bb4b"/><path d="m42 22h2v2h-2z" fill="#55b56a"/><path d="m54 22h5a0 0 0 0 1 0 0v6a0 0 0 0 1 0 0h-5a3 3 0 0 1 -3-3 3 3 0 0 1 3-3z" fill="#cfdfe8"/><path d="m55 22h4v6h-4z" fill="#f9bb4b"/><path d="m51 18-2-4h-4l2 4z" fill="#aabece"/><path d="m39 10h8v4h-8z" fill="#143441"/><path d="m47 10h2a2 2 0 0 1 2 2 2 2 0 0 1 -2 2h-2a0 0 0 0 1 0 0v-4a0 0 0 0 1 0 0z" fill="#4f97d5"/><path d="m39 23v4h-4v-1.78a5.929 5.929 0 0 1 .43-2.22z" fill="#55b56a"/><path d="m13 45a2.122 2.122 0 0 0 3 0l10-11-3-3-10 11a2.122 2.122 0 0 0 0 3z" fill="#cfdfe8"/><path d="m38 40a4 4 0 0 1 -4 4h-6a4 4 0 0 1 -4-4 4 4 0 0 1 4-4h4z" fill="#394d5c"/><path d="m27 39h4v2h-4z" fill="#f4f4e6"/></g></svg>