<svg height="512" viewBox="0 0 64 64" width="512" xmlns="http://www.w3.org/2000/svg"><g id="flat"><path d="m13.5 18.5-4.5-1.5-2-6h4z" fill="#394d5c"/><g fill="#143441"><path d="m21 8h11v4h-11z"/><path d="m6.143 40.167a9 9 0 1 0 14.857 6.833z"/><circle cx="52" cy="47" r="9"/></g><circle cx="12" cy="47" fill="#f4f4e6" r="3"/><path d="m6.143 40.167a9 9 0 0 1 14.857 6.833h-9z" fill="#3e5496"/><path d="m30 39h8v6h-8z" fill="#394d5c"/><path d="m34 39h-6l-2-8h6z" fill="#aabece"/><path d="m38 39-2-8h12l-1 3c-1.476 2.952-5.7 5-9 5z" fill="#3e5496"/><path d="m50 37-12 8h-9l-1-6-1-4a4 4 0 0 0 -4 4v5a4.853 4.853 0 0 0 5 5h12l10.518-7.311z" fill="#5a6470"/><path d="m56 27a5 5 0 0 1 5 5v6l-5-4z" fill="#394d5c"/><path d="m56 23h4v4h-4z" fill="#f9bb4b"/><path d="m15 16h5v4h-5z" fill="#aabece"/><path d="m7 17h5a3 3 0 0 1 3 3 3 3 0 0 1 -3 3h-5a0 0 0 0 1 0 0v-6a0 0 0 0 1 0 0z" fill="#7d8d9c"/><circle cx="12" cy="25" fill="#e97424" r="2"/><path d="m7 17h4v6h-4z" fill="#f9bb4b"/><path d="m15 16 6-8h5l-6 8z" fill="#cfdfe8"/><path d="m27 16a3 3 0 0 1 3 3v1a0 0 0 0 1 0 0h-6a0 0 0 0 1 0 0v-1a3 3 0 0 1 3-3z" fill="#aabece"/><path d="m49 22.88a4.054 4.054 0 0 0 2-.88 5.332 5.332 0 0 1 1.29-1.39 2.923 2.923 0 0 1 1.71-.61 2.006 2.006 0 0 1 2 2v5a3.779 3.779 0 0 1 -4 4h-16v-5a3 3 0 0 1 3-3h9l.512.054z" fill="#143441"/><path d="m39 23h2v3h-2z" fill="#5a6470"/><path d="m43 23h2v3h-2z" fill="#5a6470"/><path d="m49 22.88v3.12h-2v-3h1a4.753 4.753 0 0 0 1-.12z" fill="#5a6470"/><path d="m33 35h-6l-.5-2h6z" fill="#143441"/><path d="m36 26v5h-12a6.045 6.045 0 0 1 -6-6v-5h12a5.979 5.979 0 0 1 3.713 1.286z" fill="#3e5496"/><path d="m10 44h4l5-24h-4z" fill="#cfdfe8"/><path d="m33.71 21.29-9.71 9.71h12v-5a5.985 5.985 0 0 0 -2.29-4.71z" fill="#4f97d5"/><circle cx="30" cy="42" fill="#cfdfe8" r="4"/><path d="m11.25 38h4l2.292-11h-4z" fill="#aabece"/><path d="m21 23h5v2h-5z" fill="#4f97d5"/><path d="m54.308 46-4.117-.759-2.191-14.241h4z" fill="#cfdfe8"/><circle cx="52" cy="47" fill="#f4f4e6" r="3"/></g></svg>