<svg height="512" viewBox="0 0 64 64" width="512" xmlns="http://www.w3.org/2000/svg"><g id="flat"><path d="m52.159 16.2-.623.519a5.523 5.523 0 0 1 -3.536 1.281h-10a2 2 0 0 0 -2 2v2h20v-4a2.342 2.342 0 0 0 -3.841-1.8z" fill="#ad6327"/><path d="m27.293 40.707-2-2a4.543 4.543 0 0 1 -1.293-3.707 3 3 0 0 1 3-3h4v2h-4a1 1 0 0 0 -1 1c0 1.209.1 1.683.707 2.293l2 2z" fill="#4f97d5"/><path d="m49 28 2 6h6l-2-6z" fill="#394d5c"/><path d="m56 18-2 2c-1.412 1.13-2.191 2-4 2h-12a2 2 0 0 1 -2-2 6 6 0 0 0 -6-6h-11v4l-1 5 4 5h33l6-5v-2a3 3 0 0 0 -3-3z" fill="#4da19a"/><path d="m37 33h12v4h-8v9h-4z" fill="#5a6470"/><circle cx="12" cy="45" fill="#143441" r="9"/><circle cx="52" cy="45" fill="#143441" r="9"/><path d="m10 42h4l5-24h-4z" fill="#cfdfe8"/><path d="m54.368 42.196h-4l-4.368-14.196h4z" fill="#cfdfe8"/><path d="m15 14h4v4h-4z" fill="#7fcac9"/><path d="m23 18v5h-9l1-5z" fill="#f9bb4b"/><path d="m23 18h1l6 6a2.121 2.121 0 0 1 -3 3l-4-4z" fill="#ffd782"/><path d="m35 28h-4l-2 5v8h8v-8z" fill="#7d8d9c"/><path d="m29 33 4 2 4-2-2-5h-4z" fill="#aabece"/><g fill="#394d5c"><path d="m35 28 2 5h6l-2-5z"/><path d="m30 14h-6v-2a1.978 1.978 0 0 1 2-2h2a1.978 1.978 0 0 1 2 2z"/><path d="m19 14-2-4h-4l2 4z"/></g><path d="m57 21h4v2h-4z" fill="#f9bb4b"/><path d="m29 17h2v2h-2z" fill="#aeddd0"/><path d="m55 28 6-5v5z" fill="#f9bb4b"/><path d="m15 25h-5v-4l-1-4 6 1z" fill="#4f97d5"/><circle cx="12" cy="45" fill="#7d8d9c" r="4"/><circle cx="52" cy="45" fill="#7d8d9c" r="4"/><path d="m37 46-7-7a2.121 2.121 0 0 0 -3 3l8 8h16v-4z" fill="#aabece"/></g></svg>