<svg height="512" viewBox="0 0 64 64" width="512" xmlns="http://www.w3.org/2000/svg"><g id="flat"><path d="m17 19h5v7h-5z" fill="#d3843d"/><circle cx="12" cy="49" fill="#143441" r="9"/><circle cx="12" cy="49" fill="#f4f4e6" r="5"/><path d="m10 43h4l5-24h-4z" fill="#5a6470"/><path d="m11 45h2v5h-2z" fill="#5a6470"/><path d="m29 35-3-4-1.6-2-2.4-3h-8.458l-2.292 11h4l2.167-10.399 1.663 2.399 1.38 2 1.39 2 1.38 2 3.089 4.46 6.681-.46v-4z" fill="#aabece"/><path d="m10 43h4a0 0 0 0 1 0 0v2a2 2 0 0 1 -2 2 2 2 0 0 1 -2-2v-2a0 0 0 0 1 0 0z" fill="#aabece"/><path d="m61 31h-20l-5-9h6a3.1 3.1 0 0 1 3 2l1 2h10a5 5 0 0 1 5 5z" fill="#143441"/><circle cx="52" cy="49" fill="#143441" r="9"/><circle cx="52" cy="49" fill="#f4f4e6" r="5"/><path d="m43 31c-1 4-4.3 4-6 4h-3l-3-4h-5l-4-5v-7h7a14.981 14.981 0 0 1 9 3l2.22 4 1.11 2z" fill="#301a12"/><path d="m47 43h10a0 0 0 0 1 0 0v6a0 0 0 0 1 0 0h-8a2 2 0 0 1 -2-2v-4a0 0 0 0 1 0 0z" fill="#394d5c"/><path d="m49 37h8a0 0 0 0 1 0 0v6a0 0 0 0 1 0 0h-10a0 0 0 0 1 0 0v-4a2 2 0 0 1 2-2z" fill="#aabece"/><path d="m43 31 6 6 6-6z" fill="#aabece"/><path d="m59 31h2v5h-2z" fill="#5a6470"/><path d="m41.33 28h-10.33v-2h9.22z" fill="#995f5b"/><path d="m27 26h2v2h-2z" fill="#995f5b"/><path d="m22 19h6v4h-6z" fill="#ceac9a"/><path d="m53 37h4v6h-4z" fill="#cfdfe8"/><path d="m53 43h4v6h-4z" fill="#5a6470"/><path d="m33 35h4v4h-4z" fill="#5a6470"/><path d="m6 15h5a4 4 0 0 1 4 4 4 4 0 0 1 -4 4h-5a0 0 0 0 1 0 0v-8a0 0 0 0 1 0 0z" fill="#aabece"/><path d="m6 15h4v8h-4z" fill="#f9bb4b"/><path d="m15 12h4v7h-4z" fill="#cfdfe8"/><path d="m14 6a2 2 0 0 1 2 2v4a0 0 0 0 1 0 0h-4a0 0 0 0 1 0 0v-4a2 2 0 0 1 2-2z" fill="#aabece"/><path d="m16 8h10a2 2 0 0 1 2 2 2 2 0 0 1 -2 2h-10a0 0 0 0 1 0 0v-4a0 0 0 0 1 0 0z" fill="#143441"/><path d="m29 35-1.5-2h-5.65l1.38 2h4.77v4h2v-4z" fill="#cfdfe8"/><path d="m26 31h-5.54l-1.38-2h5.32z" fill="#cfdfe8"/><path d="m39 43v5h-12v-5h4v-4h-4a4 4 0 0 0 -4 4v5a4.012 4.012 0 0 0 4 4h13a3 3 0 0 0 3-3 2 2 0 0 1 2-2h2v-8h-4a4 4 0 0 0 -4 4z" fill="#5a6470"/><path d="m42 42h5v2h-5z" fill="#cfdfe8"/><path d="m31 39h6a2 2 0 0 1 2 2v4a0 0 0 0 1 0 0h-6a2 2 0 0 1 -2-2v-4a0 0 0 0 1 0 0z" fill="#394d5c"/></g></svg>