<svg height="512" viewBox="0 0 64 64" width="512" xmlns="http://www.w3.org/2000/svg"><g id="flat"><path d="m24 21a7 7 0 0 1 7 7v8a0 0 0 0 1 0 0h-14a0 0 0 0 1 0 0v-8a7 7 0 0 1 7-7z" fill="#4f97d5"/><rect fill="#143441" height="16" rx="3" width="6" x="5" y="45"/><path d="m3 49h10v-11a5 5 0 0 0 -5-5 5 5 0 0 0 -5 5z" fill="#4da19a"/><rect fill="#f9bb4b" height="6" rx="3" width="6" x="5" y="27"/><path d="m41 19h10a6 6 0 0 1 6 6v20a4 4 0 0 1 -4 4h-14a4 4 0 0 1 -4-4v-20a6 6 0 0 1 6-6z" fill="#4da19a"/><path d="m33 11h6a0 0 0 0 1 0 0v4a0 0 0 0 1 0 0h-6a2 2 0 0 1 -2-2 2 2 0 0 1 2-2z" fill="#143441"/><path d="m53 11h6a2 2 0 0 1 2 2 2 2 0 0 1 -2 2h-6a0 0 0 0 1 0 0v-4a0 0 0 0 1 0 0z" fill="#143441"/><path d="m39 10h14v5h-1a4 4 0 0 0 -4 4h-4a4 4 0 0 0 -4-4h-1z" fill="#7ec4bb"/><rect fill="#4da19a" height="4" rx="2" width="22" x="16" y="49"/><path d="m13 38h4v4h-4z" fill="#143441"/><rect fill="#143441" height="22" rx="3" width="6" x="43" y="39"/><path d="m43 19h6v16h-6z" fill="#9de0d5"/><path d="m41 10h-2v-2.586l-1.707-1.707 1.414-1.414 2 2a1 1 0 0 1 .293.707z" fill="#7d8d9c"/><path d="m53 10h-2v-3a1 1 0 0 1 .293-.707l2-2 1.414 1.414-1.707 1.707z" fill="#7d8d9c"/><path d="m39 32a1 1 0 0 1 -1-1v-2a1 1 0 0 1 2 0v2a1 1 0 0 1 -1 1z" fill="#ffd782"/><path d="m53 32a1 1 0 0 1 -1-1v-2a1 1 0 0 1 2 0v2a1 1 0 0 1 -1 1z" fill="#ffd782"/><path d="m43 19h6v6h-6z" fill="#f9bb4b"/><circle cx="46" cy="10" fill="#f9bb4b" r="3"/><circle cx="38" cy="5" fill="#aabece" r="2"/><circle cx="54" cy="5" fill="#aabece" r="2"/><path d="m46 33a7 7 0 0 1 7 7v2a0 0 0 0 1 0 0h-14a0 0 0 0 1 0 0v-2a7 7 0 0 1 7-7z" fill="#7ec4bb"/><path d="m21 48.32a6.97 6.97 0 0 1 -4-6.32v-6a6.97 6.97 0 0 1 4-6.32h6a6.868 6.868 0 0 1 1.95 1.37 6.958 6.958 0 0 1 2.05 4.95v6a6.97 6.97 0 0 1 -4 6.32z" fill="#7ec4bb"/><path d="m27 29.68v18.64a6.958 6.958 0 0 1 -6 0v-18.64a6.958 6.958 0 0 1 6 0z" fill="#9de0d5"/></g></svg>