<svg height="512" viewBox="0 0 64 64" width="512" xmlns="http://www.w3.org/2000/svg"><g id="flat"><circle cx="17" cy="51" fill="#143441" r="5"/><path d="m12.293 41.707-5.414-5.414h2.828l4 4z" fill="#aabece"/><circle cx="56" cy="51" fill="#143441" r="5"/><path d="m55 50h2v2h-2z" fill="#f4f4e6"/><path d="m48 34 1-3v-6h-5a3.879 3.879 0 0 0 -4 4c0 3 5 5 5 5l-2 4a11.194 11.194 0 0 0 -1 8c.211.844 0 2-2 2h-7a3 3 0 0 1 -3-3 4.828 4.828 0 0 1 1.414-3.414l2.586-2.586h-17c-7 1-10 6-10 10a2 2 0 0 0 2 2h13l3 2h14a9.678 9.678 0 0 0 6.947-2.947l.053-.053a7.936 7.936 0 0 0 7.986-.986l2.014-2.014h5a4.3 4.3 0 0 0 -3-4l-4-1z" fill="#7d8d9c"/><path d="m12 51a3.2 3.2 0 0 1 1-5l2-1a13.675 13.675 0 0 1 7-2 4 4 0 0 1 4 4 4 4 0 0 1 -4 4z" fill="#aabece"/><path d="m49 25-2-17c-2.129 0-4.249 2.885-4 5l2 12z" fill="#195c85"/><path d="m15 35a2 2 0 0 1 2-2h6a3.5 3.5 0 0 1 2 1 3.415 3.415 0 0 0 2.414 1h5.586a3.009 3.009 0 0 1 3 3 1 1 0 0 1 -1 1h-16a4 4 0 0 1 -4-4z" fill="#143441"/><path d="m45 34c3 5 5 10 1 16l8-8a6.306 6.306 0 0 0 -2-5l-4-3z" fill="#aabece"/><path d="m15 32c0 3.3-2.7 5-6 5-3.314 0-6-1.686-6-5z" fill="#ad6327"/><path d="m7 28h4a4 4 0 0 1 4 4 0 0 0 0 1 0 0h-12a0 0 0 0 1 0 0 4 4 0 0 1 4-4z" fill="#d3843d"/><path d="m53 31h-1a3 3 0 0 1 -3-3 3 3 0 0 1 3-3h1z" fill="#143441"/><path d="m53 25h2a2 2 0 0 1 2 2v2a2 2 0 0 1 -2 2h-2a0 0 0 0 1 0 0v-6a0 0 0 0 1 0 0z" fill="#f9bb4b"/><path d="m44 28h2v2h-2z" fill="#f4f4e6"/></g></svg>