<svg height="512" viewBox="0 0 64 64" width="512" xmlns="http://www.w3.org/2000/svg"><g id="flat"><circle cx="54" cy="46" fill="#143441" r="7"/><circle cx="54" cy="46" fill="#f4f4e6" r="3"/><path d="m50 35h3a4 4 0 0 1 4 4 0 0 0 0 1 0 0h-7a0 0 0 0 1 0 0v-4a0 0 0 0 1 0 0z" fill="#195c85"/><path d="m52 39h4a0 0 0 0 1 0 0v6a2 2 0 0 1 -2 2 2 2 0 0 1 -2-2v-6a0 0 0 0 1 0 0z" fill="#50b3c9"/><circle cx="13" cy="46" fill="#143441" r="7"/><circle cx="13" cy="46" fill="#f4f4e6" r="3"/><path d="m13 47a1 1 0 0 1 -.894-1.447l3.894-5.789v-4.764a1 1 0 0 1 2 0v5a1 1 0 0 1 -.105.447l-4 6a1 1 0 0 1 -.895.553z" fill="#50b3c9"/><path d="m16 31h14v11h-7v-3a2.916 2.916 0 0 0 -3-3h-4z" fill="#195c85"/><path d="m16 31v-3a4.044 4.044 0 0 1 4-4.25l10 1.25a3 3 0 0 1 3 3 3 3 0 0 1 -3 3z" fill="#143441"/><path d="m23 42a5 5 0 0 0 5 5h13v-5z" fill="#394d5c"/><path d="m45 35h7v-5l-4-6h-3z" fill="#195c85"/><path d="m45 18h4v6h-4z" fill="#4f97d5"/><path d="m45 24h-2.031a2 2 0 0 1 -1.969-2v-2a2 2 0 0 1 1.969-2h2.031z" fill="#195c85"/><path d="m45 14h4v4h-4z" fill="#5a6470"/><path d="m41 10h4a4 4 0 0 1 4 4 0 0 0 0 1 0 0h-8a2 2 0 0 1 -2-2 2 2 0 0 1 2-2z" fill="#143441"/><path d="m16 34h-11a2 2 0 0 1 -2-2 2 2 0 0 1 2-2h11z" fill="#4f97d5"/><path d="m41 42v5a11 11 0 0 0 11-11v-1h-7c0 2.518-1.986 5.489-4 7z" fill="#4f97d5"/><path d="m25 34h2v2h-2z" fill="#50b4f8"/><path d="m49 18h1a3 3 0 0 1 3 3 3 3 0 0 1 -3 3h-1a0 0 0 0 1 0 0v-6a0 0 0 0 1 0 0z" fill="#f9bb4b"/></g></svg>