<svg height="512" viewBox="0 0 64 64" width="512" xmlns="http://www.w3.org/2000/svg"><g id="flat"><path d="m9.869 17.42-4.869-6.42 2-.748 4.395 5.875z" fill="#394d5c"/><path d="m5 7h4v4h-4z" fill="#e97424"/><path d="m25 41h7v6h-7z" fill="#143441"/><path d="m25 23h24v7h-24z" fill="#143441"/><path d="m45.294 33.294 5.706 5.706v-11z" fill="#394d5c"/><path d="m62 27h-2v-2h-7v-2h8a1 1 0 0 1 1 1z" fill="#f9bb4b"/><circle cx="12" cy="48" fill="#143441" r="9"/><circle cx="52" cy="48" fill="#143441" r="9"/><circle cx="12" cy="48" fill="#f4f4e6" r="5"/><path d="m10 27h4a0 0 0 0 1 0 0v18a2 2 0 0 1 -2 2 2 2 0 0 1 -2-2v-18a0 0 0 0 1 0 0z" fill="#394d5c"/><circle cx="52" cy="48" fill="#f4f4e6" r="5"/><path d="m32 47v-6l6-6v12z" fill="#cfdfe8"/><path d="m38 35h7v8h-7z" fill="#aabece"/><path d="m16 11v12l10 7-1 11-16-14h-6v-6z" fill="#e1462b"/><path d="m61 13-1.67 5-.33 1-.87 1-13.13 15h-7l-6 6h-7l1-11h12l11-7v-2a6.988 6.988 0 0 1 2-4.91 11.087 11.087 0 0 1 3.19-2.29 9.116 9.116 0 0 1 3.81-.8z" fill="#e97424"/><path d="m16 23 10 7 8-7-8-7-10 1z" fill="#e97424"/><path d="m59.33 18-.33 1-.87 1h-3.13v-2z" fill="#e1462b"/><g fill="#f9bb4b"><path d="m8 27h-5v-6h8z"/><path d="m20 20h4v2h-4z"/><path d="m29 33h2v2h-2z"/></g><path d="m32 43h19a2 2 0 0 1 2 2 2 2 0 0 1 -2 2h-19a0 0 0 0 1 0 0v-4a0 0 0 0 1 0 0z" fill="#5a6470"/></g></svg>