<svg height="512" viewBox="0 0 64 64" width="512" xmlns="http://www.w3.org/2000/svg"><g id="flat"><path d="m3.707 30.707-1.414-1.414 2-2a1 1 0 0 1 .707-.293h5v2h-4.586z" fill="#5a6470"/><path d="m30 34h2v2h-2z" fill="#e97424"/><path d="m31 35-11-11h-3v-4c0-1.42-1-3-4-2l-8 2v5l4 4h9l9 9z" fill="#e97424"/><path d="m20 24h9v9z" fill="#143441"/><path d="m47 31-5 5h-10l-3-3v-9z" fill="#394d5c"/><path d="m47 31h10a10 10 0 0 0 -2.828-6.912l-5.172-5.171-5 5.083 3 3z" fill="#e97424"/><path d="m27 38 7 7h9l-9-9h-6z" fill="#aabece"/><circle cx="30" cy="38" fill="#cfdfe8" r="3"/><path d="m33 20h7l7 7h-9l-3 3-6-6a4 4 0 0 1 4-4z" fill="#f9bb4b"/><path d="m47 27v4l-5 5h-7v-6l3-3z" fill="#ffd782"/><circle cx="12" cy="44" fill="#143441" r="9"/><circle cx="52" cy="44" fill="#143441" r="9"/><circle cx="12" cy="44" fill="#f4f4e6" r="5"/><circle cx="52" cy="44" fill="#f4f4e6" r="5"/><path d="m9 24-4 1v-5l4-1z" fill="#f9bb4b"/><path d="m49 18.917-8-7.917c-1.839 1.839-2.822 3.533-2 6l1 3 4 4z" fill="#4f97d5"/><path d="m57 31a4 4 0 0 0 -4-4h-2v4z" fill="#f9bb4b"/><path d="m45.41 27-6.2 6.21-1.42-1.42 4.79-4.79z" fill="#d3843d"/><path d="m12 24h2v2h-2z" fill="#ffd782"/><path d="m34 23h2v2h-2z" fill="#f4f4e6"/><path d="m34 45h4v4h-4z" fill="#143441"/><g fill="#5a6470"><path d="m46 40-4-4h-8l9 9h10a5 5 0 0 0 -5-5z"/><path d="m27 38-6 5h-9v-4h7l5-4z"/></g></g></svg>