<svg height="512" viewBox="0 0 64 64" width="512" xmlns="http://www.w3.org/2000/svg"><g id="flat"><path d="m42.707 24.707-1.414-1.414 4.707-4.707v-4.586h2v5a1 1 0 0 1 -.293.707z" fill="#394d5c"/><circle cx="52" cy="45" fill="#143441" r="9"/><circle cx="52" cy="45" fill="#f4f4e6" r="5"/><path d="m30 35h15l-6-9h-8l-4 4z" fill="#195c85"/><path d="m25 35v5l6 6h9l5 4 4-9-4-6z" fill="#195c85"/><circle cx="12" cy="45" fill="#143441" r="9"/><circle cx="12" cy="45" fill="#f4f4e6" r="5"/><path d="m7 26 5 5h4l4 4h10v-2a3 3 0 0 0 -3-3h-6l-4-4z" fill="#143441"/><path d="m45.217 28.522.783 3.478 4 1 1-4-2-3z" fill="#394d5c"/><path d="m36 38 4 4v4h-3l-5-5z" fill="#aabece"/><path d="m31 46h9l5 4h-10z" fill="#2d75bb"/><path d="m31 46-6-6h-5v5h4l5 5h6z" fill="#394d5c"/><path d="m21 35h4v5h-4z" fill="#aabece"/><path d="m3.97 36.242-1.94-.484 1-4a1 1 0 0 1 .7-.72l7-2 1.27 1.962-7.17 1.8z" fill="#143441"/><path d="m30 35 4-4 5-5 6 9z" fill="#2d75bb"/><path d="m39 20h4v4h-4z" fill="#5a6470"/><path d="m35 16h4a4 4 0 0 1 4 4 0 0 0 0 1 0 0h-8a2 2 0 0 1 -2-2 2 2 0 0 1 2-2z" fill="#143441"/><path d="m44 10a4 4 0 0 1 4 4v2a0 0 0 0 1 0 0 4 4 0 0 1 -4-4v-2a0 0 0 0 1 0 0z" fill="#195c85"/><path d="m7 26h8l-3 5z" fill="#195c85"/><path d="m51 43h2v3h-2z" fill="#394d5c"/><path d="m39 30h5v2h-5z" fill="#4f97d5"/><circle cx="33.5" cy="38.5" fill="#cfdfe8" r="3.5"/><path d="m49 41-10-15v-2h4l10 16c1 3-3 4-4 1z" fill="#aabece"/></g></svg>