<svg height="512" viewBox="0 0 64 64" width="512" xmlns="http://www.w3.org/2000/svg"><g id="flat"><path d="m41 17h7v2h-7z" fill="#143441"/><circle cx="13" cy="40" fill="#143441" r="9"/><circle cx="13" cy="40" fill="#f4f4e6" r="5"/><circle cx="52" cy="40" fill="#143441" r="9"/><circle cx="52" cy="40" fill="#f4f4e6" r="5"/><path d="m22 40h10v-7l9-6h12l-2-4-6-6v-2h4l8 8 2 7-15 15h-18z" fill="#e33e5c"/><path d="m22 28h10v12h-10z" fill="#5a6470"/><path d="m32 28 9-1-9 6z" fill="#b11e48"/><circle cx="29" cy="37" fill="#143441" r="3"/><path d="m41 27-9 1h-5a6 6 0 0 1 6-6h3a4.143 4.143 0 0 1 4 3z" fill="#e33e5c"/><path d="m3.707 31.707-1.414-1.414 2.707-2.707v-2.586h2v3a1 1 0 0 1 -.293.707z" fill="#5a6470"/><path d="m53 27h-12l6-4h4z" fill="#394d5c"/><path d="m10 21h-5v-4h3z" fill="#e33e5c"/><path d="m22 28-7-7h-10a2 2 0 0 0 0 4h8l9 12v-5h6a4 4 0 0 0 4-4z" fill="#394d5c"/><path d="m35 34h6v2h-6z" fill="#f98c96"/><path d="m12 39h2v2h-2z" fill="#5a6470"/></g></svg>