<svg height="512" viewBox="0 0 64 64" width="512" xmlns="http://www.w3.org/2000/svg"><g id="flat"><path d="m23 33h-7a1 1 0 0 1 -1-1v-5h2v4h6z" fill="#aabece"/><circle cx="12" cy="42" fill="#394d5c" r="9"/><circle cx="12" cy="42" fill="#f4f4e6" r="5"/><circle cx="52" cy="42" fill="#394d5c" r="9"/><circle cx="52" cy="42" fill="#f4f4e6" r="5"/><path d="m9 31 8 8 6 1a2.149 2.149 0 0 1 2 2 1.919 1.919 0 0 1 -2 2h-9l-9-9z" fill="#aabece"/><path d="m23 44v4h22l9-15 3-3-6-6-9 9h-12v9h-5a2 2 0 0 1 -2 2z" fill="#2d75bb"/><path d="m30 38-27-18h12l5 6h6l5-4h9l3 2-1 9h-12z" fill="#2d75bb"/><path d="m51 24v-4l-7-7-3 3 9 9z" fill="#e8e8e8"/><path d="m43 24-13 4v5h12z" fill="#f4f4e6"/><path d="m43 24 7 1-8 8z" fill="#195c85"/><path d="m30 42h9l15-15-3-3-9 9h-12z" fill="#394d5c"/><path d="m35 36h5v2h-5z" fill="#f4f4e6"/><path d="m38 28h2v2h-2z" fill="#2d75bb"/><path d="m54 27 3 3-2 2-4-2z" fill="#e8e8e8"/><path d="m17 39-3 5-11-11v-5h5l1 3z" fill="#143441"/><g fill="#aabece"><circle cx="30" cy="34" r="3"/><path d="m5 35-2-2v-5h5l1 3z"/></g></g></svg>