<svg height="512" viewBox="0 0 64 64" width="512" xmlns="http://www.w3.org/2000/svg"><g id="flat"><path d="m58.445 32.832-2.745-1.832h-6.7v-2h7a1.006 1.006 0 0 1 .555.168l3 2z" fill="#394d5c"/><path d="m17.61 51.03a8.881 8.881 0 0 1 -4.61 1.91h-2a8.909 8.909 0 0 1 -5.15-2.38l-1.31-1.52a9.011 9.011 0 0 1 -1.48-4.04v-2a8.881 8.881 0 0 1 1.91-4.61l1.42-1.42a8.881 8.881 0 0 1 4.61-1.91h2a8.989 8.989 0 0 1 6.03 14.55z" fill="#143441"/><circle cx="12" cy="44" fill="#f4f4e6" r="3"/><path d="m44.97 49.61a8.993 8.993 0 0 1 12.64-12.64l1.42 1.42a8.881 8.881 0 0 1 1.91 4.61v2a8.881 8.881 0 0 1 -1.91 4.61l-1.42 1.42a8.881 8.881 0 0 1 -4.61 1.91h-2a8.881 8.881 0 0 1 -4.61-1.91z" fill="#143441"/><circle cx="52" cy="44" fill="#f4f4e6" r="3"/><path d="m21 32v13h18l11-15-8-8-14 6z" fill="#b11e48"/><path d="m21 25.941-10-2.941v5l10 4z" fill="#b11e48"/><path d="m32 32h9l-5 5-8-3z" fill="#da1c4b"/><circle cx="30" cy="42" fill="#e33e5c" r="3"/><path d="m50 30v4l-.46 5.12-.24 2.6-.3 3.28h-10l-3-8 5-5z" fill="#e33e5c"/><path d="m21 32v-6.059l7 2.059 4 4-4 2z" fill="#143441"/><path d="m3.707 31.707-1.414-1.414 4-4a1 1 0 0 1 .707-.293h4v2h-3.586z" fill="#394d5c"/><path d="m49.54 39.12-.24 2.6-7.51-7.51 1.42-1.42z" fill="#b11e48"/><path d="m42 22 3-3h4l6 6-5 5z" fill="#da1c4b"/><path d="m45 15h4v4h-4z" fill="#aabece"/><path d="m46 11h-8a2 2 0 0 0 -2 2 2 2 0 0 0 2 2h11z" fill="#b11e48"/><path d="m47.464 23.879h7.071v4.243h-7.071z" fill="#143441" transform="matrix(.707 -.707 .707 .707 -3.447 43.678)"/><path d="m40 27h4v2h-4z" fill="#e33e5c"/><path d="m21 45h-6.171l-2.829-4h9z" fill="#7d8d9c"/><g fill="#394d5c"><path d="m13 35.06v2.94h-2v-2.94a8.363 8.363 0 0 1 2 0z"/><path d="m13 50v2.94a8.363 8.363 0 0 1 -2 0v-2.94z"/><path d="m6 43v2h-2.94a8.363 8.363 0 0 1 0-2z"/><path d="m7.71 48.71-1.86 1.85a8.68 8.68 0 0 1 -1.31-1.52l1.75-1.75z"/><path d="m8.71 39.29-1.42 1.42-2.32-2.32a7.953 7.953 0 0 1 1.42-1.42z"/><path d="m19.03 49.61a7.953 7.953 0 0 1 -1.42 1.42l-2.32-2.32 1.42-1.42z"/><path d="m61 44a8.262 8.262 0 0 1 -.06 1h-2.94v-2h2.94a8.262 8.262 0 0 1 .06 1z"/><path d="m53 50v2.94a8.363 8.363 0 0 1 -2 0v-2.94z"/><path d="m48.71 48.71-2.32 2.32a7.953 7.953 0 0 1 -1.42-1.42l2.32-2.32z"/><path d="m59.03 49.61a7.953 7.953 0 0 1 -1.42 1.42l-2.32-2.32 1.42-1.42z"/><path d="m59.03 38.39-2.32 2.32-1.42-1.42 2.32-2.32a7.953 7.953 0 0 1 1.42 1.42z"/></g></g></svg>