<svg height="512" viewBox="0 0 64 64" width="512" xmlns="http://www.w3.org/2000/svg"><g id="flat"><path d="m3.625 32.781-1.25-1.562 4.625-3.699v-5.52h2v6a1 1 0 0 1 -.375.781z" fill="#394d5c"/><path d="m15.707 34.707-2.121-.707 5.561-5.561 1.267 1.561z" fill="#aabece"/><path d="m17.61 49.03a8.881 8.881 0 0 1 -4.61 1.91h-2a8.881 8.881 0 0 1 -4.61-1.91l-1.42-1.42a8.881 8.881 0 0 1 -1.91-4.61v-2a8.881 8.881 0 0 1 1.91-4.61l1.42-1.42a8.881 8.881 0 0 1 4.61-1.91h2a8.989 8.989 0 0 1 6.03 14.55z" fill="#143441"/><circle cx="12" cy="42" fill="#f4f4e6" r="3"/><path d="m44.97 47.61a8.993 8.993 0 0 1 12.64-12.64l1.42 1.42a8.881 8.881 0 0 1 1.91 4.61v2a8.881 8.881 0 0 1 -1.91 4.61l-1.42 1.42a8.881 8.881 0 0 1 -4.61 1.91h-2a8.881 8.881 0 0 1 -4.61-1.91z" fill="#143441"/><circle cx="52" cy="42" fill="#f4f4e6" r="3"/><path d="m61 42a8.262 8.262 0 0 1 -.06 1h-2.94v-2h2.94a8.262 8.262 0 0 1 .06 1z" fill="#5a6470"/><path d="m13 39 10-3h5l1 6h-16z" fill="#aabece"/><path d="m22 42 4 4h19v-4z" fill="#394d5c"/><path d="m54 29-3-3h-12l4 4-5 4v8h13z" fill="#2d75bb"/><path d="m25 36-10-10h-5l-5-5h11l4 4h6l4-4h9l5 5h-5l4 4-5 4v8h-9l-1-6z" fill="#143441"/><path d="m26 25 13 1h5l-5-5h-9z" fill="#195c85"/><path d="m39 26-13 3 2 7 1 6h9v-8l5-4z" fill="#195c85"/><circle cx="35" cy="34" fill="#7fcac9" r="3"/><path d="m54 29 3-4-10-10-3 3 5 5v3h2z" fill="#195c85"/><path d="m44 26h5v-3l-2-2h-8z" fill="#f4f4e6"/><path d="m47 21-4-4h-4v4z" fill="#394d5c"/><path d="m43 17h-6a2 2 0 0 1 -2-2 2 2 0 0 1 2-2h6z" fill="#143441"/><path d="m43 30-4-4h10z" fill="#7fcac9"/><g fill="#5a6470"><path d="m53 48v2.94a8.363 8.363 0 0 1 -2 0v-2.94z"/><path d="m59.03 36.39-2.32 2.32-1.42-1.42 2.32-2.32a7.953 7.953 0 0 1 1.42 1.42z"/><path d="m59.03 47.61a7.953 7.953 0 0 1 -1.42 1.42l-2.32-2.32 1.42-1.42z"/><path d="m48.71 46.71-2.32 2.32a7.953 7.953 0 0 1 -1.42-1.42l2.32-2.32z"/><path d="m6 41v2h-2.94a8.363 8.363 0 0 1 0-2z"/><path d="m13 48v2.94a8.363 8.363 0 0 1 -2 0v-2.94z"/><path d="m13 33.06v2.94h-2v-2.94a8.363 8.363 0 0 1 2 0z"/><path d="m8.71 37.29-1.42 1.42-2.32-2.32a7.953 7.953 0 0 1 1.42-1.42z"/><path d="m19.03 47.61a7.953 7.953 0 0 1 -1.42 1.42l-2.32-2.32 1.42-1.42z"/><path d="m8.71 46.71-2.32 2.32a7.953 7.953 0 0 1 -1.42-1.42l2.32-2.32z"/></g><path d="m54 29 3-4-3-3-3 4z" fill="#7fcac9"/></g></svg>