<svg height="512" viewBox="0 0 64 64" width="512" xmlns="http://www.w3.org/2000/svg"><g id="flat"><path d="m18 26-12-12v-3h4a12.194 12.194 0 0 1 9.019 4.019l2.981 2.981h9l8 8z" fill="#143441"/><path d="m9 11 11 11h15l4 4h-21l-12-12v-3z" fill="#394d5c"/><path d="m30 18 8 8h11l-1-8a13.548 13.548 0 0 0 -18 0z" fill="#55b56a"/><path d="m61 26h-9l-1-4h7z" fill="#55b56a"/><circle cx="52" cy="44" fill="#143441" r="9"/><circle cx="12" cy="44" fill="#143441" r="9"/><circle cx="52" cy="44" fill="#f4f4e6" r="5"/><circle cx="12" cy="44" fill="#f4f4e6" r="5"/><path d="m22 26h16v14h-16z" fill="#394d5c" transform="matrix(-1 0 0 -1 60 66)"/><path d="m18 26-10 17h6l4-7z" fill="#aabece"/><path d="m51 18h-4l3 21v2a2 2 0 0 0 4 0v-2z" fill="#aabece"/><path d="m38 26h7l-14 14h-9v-6h8z" fill="#cfdfe8"/><path d="m22 26h-4v10h4v-6h12l4-4z" fill="#5a6470"/><path d="m47 12h4v6h-4z" fill="#5a6470"/><path d="m55 12h4v6h-4z" fill="#f9bb4b"/><path d="m51 13h4v4h-4z" fill="#394d5c"/><path d="m7 18h-2a2 2 0 0 1 -2-2 2 2 0 0 1 2-2h1l1 1z" fill="#f9bb4b"/><path d="m44 23h-4a1 1 0 0 1 -.707-.293l-4-4 1.414-1.414 3.707 3.707h3.586z" fill="#8ec13f"/></g></svg>