<svg height="512" viewBox="0 0 64 64" width="512" xmlns="http://www.w3.org/2000/svg"><g id="flat"><g fill="#143441"><path d="m3 20h10a0 0 0 0 1 0 0v6a0 0 0 0 1 0 0h-7a3 3 0 0 1 -3-3v-3a0 0 0 0 1 0 0z"/><circle cx="13" cy="43" r="7"/><circle cx="54" cy="43" r="7"/></g><circle cx="54" cy="43" fill="#f4f4e6" r="3"/><circle cx="13" cy="43" fill="#f4f4e6" r="3"/><path d="m46 26 4-4v-4l3 3a6.651 6.651 0 0 1 2 5v6l-6-6z" fill="#e4544f"/><path d="m50 18-4.5-4.5-.5 2.5a5.779 5.779 0 0 0 1 5l2 3 2-2z" fill="#195c85"/><path d="m38 22h4v4h-4z" fill="#5a6470"/><path d="m42 22-3-4h-7a2 2 0 0 0 -2 2 2 2 0 0 0 2 2z" fill="#143441"/><path d="m14 26h4a4.951 4.951 0 0 1 3 1l2 2h3l2-2a4.6 4.6 0 0 1 3-1h4l-7 7h-7z" fill="#143441"/><path d="m47 38-1.778 4h9.778v-10z" fill="#aabece"/><path d="m6 33v-7h8l7 7h7l7-7h14l6 6-8 6-4 9h-20l2-5-3-3z" fill="#e4544f"/><path d="m35 26 6 6-12 15h14l4-9 8-6-6-6z" fill="#b11e48"/><path d="m10.774 34.79 11.226 4.21 3 3-2 5-14-6z" fill="#5a6470"/><path d="m38.146 39h6.708v2h-6.708z" fill="#f9bb4b" transform="matrix(.447 -.894 .894 .447 -12.836 59.23)"/><path d="m10.774 34.79-4.774-1.79-2 6 5 2z" fill="#aabece"/><path d="m6 26h8l4 4h-12z" fill="#b11e48"/><circle cx="35" cy="38" fill="#f9bb4b" r="3"/><path d="m10 16h-3.8a3.036 3.036 0 0 0 -3.2 3v1h10v-1a3 3 0 0 0 -3-3z" fill="#aabece"/><path d="m46 30h2v2h-2z" fill="#f9bb4b"/></g></svg>